<svg xmlns="http://www.w3.org/2000/svg" viewBox="0 0 500 500"><g id="freepik--Background--inject-59"><path d="M82,145c39.48-46.28,91.33-83.64,150.5-97.75s125.76-2.7,171.72,37.14C446.42,121,467.47,177.16,474,232.67c4.85,41.32-5.63,114.75-26.29,151.88-30.66,4.38-44.61,42.3-66.58,51.34-28.42,11.7-58.91,17.42-89.53,20.12-39.09,3.46-78.77,3.81-117.22-4S95.42,430.47,66.8,403.64,22.12,336.27,22.08,297C22,245.59,48.57,184.18,82,145Z" style="fill:#263238"></path><path d="M82,145c39.48-46.28,91.33-83.64,150.5-97.75s125.76-2.7,171.72,37.14C446.42,121,467.47,177.16,474,232.67c4.85,41.32-5.63,114.75-26.29,151.88-30.66,4.38-44.61,42.3-66.58,51.34-28.42,11.7-58.91,17.42-89.53,20.12-39.09,3.46-78.77,3.81-117.22-4S95.42,430.47,66.8,403.64,22.12,336.27,22.08,297C22,245.59,48.57,184.18,82,145Z" style="fill:#fff;opacity:0.1"></path><path d="M177.94,132.11c.51-.3.94-.06.94.54l0,5.77A2,2,0,0,1,178,140l-15.22,8.79c-.52.3-.94.06-1-.53v-5.78a2.08,2.08,0,0,1,.93-1.62Z" style="fill:#37474f"></path><path d="M188.06,136.07c.51-.3.94-.06.94.54l0,5.77a2.08,2.08,0,0,1-.94,1.63l-15.22,8.79c-.52.3-1,.06-1-.54v-5.77a2.07,2.07,0,0,1,.93-1.63Z" style="fill:#37474f"></path><g style="opacity:0.07"><path d="M177.94,132.11c.51-.3.94-.06.94.54l0,5.77A2,2,0,0,1,178,140l-15.22,8.79c-.52.3-.94.06-1-.53v-5.78a2.08,2.08,0,0,1,.93-1.62Z" style="fill:#fff"></path><path d="M188.06,136.07c.51-.3.94-.06.94.54l0,5.77a2.08,2.08,0,0,1-.94,1.63l-15.22,8.79c-.52.3-1,.06-1-.54v-5.77a2.07,2.07,0,0,1,.93-1.63Z" style="fill:#fff"></path></g><path d="M143.14,181.28c.52-.3.94-.06.94.53l0,5.78a2.06,2.06,0,0,1-.94,1.62L127.94,198c-.52.3-.94.06-.94-.54l0-5.77a2,2,0,0,1,.94-1.62Z" style="fill:#37474f"></path><path d="M143.14,201.11c.52-.3.94-.06.94.54l0,5.77a2.08,2.08,0,0,1-.94,1.63l-15.22,8.79c-.52.29-.94.06-.94-.54l0-5.78a2.06,2.06,0,0,1,.94-1.62Z" style="fill:#37474f"></path><path d="M134.1,196.43c.52-.3,1-.06,1,.54v5.77a2.1,2.1,0,0,1-.93,1.63l-15.23,8.79c-.51.29-.94.06-.94-.54l0-5.78a2.08,2.08,0,0,1,.94-1.62Z" style="fill:#37474f"></path><path d="M153.26,185.24c.52-.3.94-.06.94.54l0,5.77a2.08,2.08,0,0,1-.94,1.63L138.06,202c-.52.29-.94.06-.94-.54l0-5.78A2.06,2.06,0,0,1,138,194Z" style="fill:#37474f"></path><g style="opacity:0.07"><path d="M143.14,181.28c.52-.3.94-.06.94.53l0,5.78a2.06,2.06,0,0,1-.94,1.62L127.94,198c-.52.3-.94.06-.94-.54l0-5.77a2,2,0,0,1,.94-1.62Z" style="fill:#fff"></path><path d="M143.14,201.11c.52-.3.94-.06.94.54l0,5.77a2.08,2.08,0,0,1-.94,1.63l-15.22,8.79c-.52.29-.94.06-.94-.54l0-5.78a2.06,2.06,0,0,1,.94-1.62Z" style="fill:#fff"></path><path d="M134.1,196.43c.52-.3,1-.06,1,.54v5.77a2.1,2.1,0,0,1-.93,1.63l-15.23,8.79c-.51.29-.94.06-.94-.54l0-5.78a2.08,2.08,0,0,1,.94-1.62Z" style="fill:#fff"></path><path d="M153.26,185.24c.52-.3.94-.06.94.54l0,5.77a2.08,2.08,0,0,1-.94,1.63L138.06,202c-.52.29-.94.06-.94-.54l0-5.78A2.06,2.06,0,0,1,138,194Z" style="fill:#fff"></path></g><path d="M73.9,197.9c.52-.29.94-.06.94.54l0,5.78a2.06,2.06,0,0,1-.94,1.62L58.7,214.63c-.52.3-.94.06-1-.54v-5.77a2.08,2.08,0,0,1,.94-1.63Z" style="fill:#37474f"></path><path d="M84,201.87c.52-.3.94-.06.94.54l0,5.77A2,2,0,0,1,84,209.8l-15.22,8.79c-.52.3-.94.06-.95-.53v-5.78a2.08,2.08,0,0,1,.93-1.62Z" style="fill:#37474f"></path><g style="opacity:0.07"><path d="M73.9,197.9c.52-.29.94-.06.94.54l0,5.78a2.06,2.06,0,0,1-.94,1.62L58.7,214.63c-.52.3-.94.06-1-.54v-5.77a2.08,2.08,0,0,1,.94-1.63Z" style="fill:#fff"></path><path d="M84,201.87c.52-.3.94-.06.94.54l0,5.77A2,2,0,0,1,84,209.8l-15.22,8.79c-.52.3-.94.06-.95-.53v-5.78a2.08,2.08,0,0,1,.93-1.62Z" style="fill:#fff"></path></g><path d="M118.69,138.45c.51-.3.94-.06.94.54l0,5.77a2.08,2.08,0,0,1-.94,1.63l-15.22,8.79c-.52.29-.95.06-.95-.54v-5.78a2.07,2.07,0,0,1,.93-1.62Z" style="fill:#37474f"></path><path d="M118.69,158.28c.51-.29.94-.06.94.54l0,5.78a2.06,2.06,0,0,1-.94,1.62L103.49,175c-.52.3-.95.06-.95-.54V168.7a2.07,2.07,0,0,1,.93-1.63Z" style="fill:#37474f"></path><path d="M109.65,153.61c.52-.3.94-.07.94.53l0,5.78a2.06,2.06,0,0,1-.94,1.62l-15.22,8.79c-.52.3-.94.06-.94-.54l0-5.77a2.08,2.08,0,0,1,.94-1.63Z" style="fill:#37474f"></path><path d="M128.81,142.41c.51-.29.94-.06.94.54l0,5.78a2.06,2.06,0,0,1-.94,1.62l-15.22,8.79c-.52.3-1,.06-1-.54v-5.77a2.07,2.07,0,0,1,.93-1.63Z" style="fill:#37474f"></path><g style="opacity:0.07"><path d="M118.69,138.45c.51-.3.94-.06.94.54l0,5.77a2.08,2.08,0,0,1-.94,1.63l-15.22,8.79c-.52.29-.95.06-.95-.54v-5.78a2.07,2.07,0,0,1,.93-1.62Z" style="fill:#fff"></path><path d="M118.69,158.28c.51-.29.94-.06.94.54l0,5.78a2.06,2.06,0,0,1-.94,1.62L103.49,175c-.52.3-.95.06-.95-.54V168.7a2.07,2.07,0,0,1,.93-1.63Z" style="fill:#fff"></path><path d="M109.65,153.61c.52-.3.94-.07.94.53l0,5.78a2.06,2.06,0,0,1-.94,1.62l-15.22,8.79c-.52.3-.94.06-.94-.54l0-5.77a2.08,2.08,0,0,1,.94-1.63Z" style="fill:#fff"></path><path d="M128.81,142.41c.51-.29.94-.06.94.54l0,5.78a2.06,2.06,0,0,1-.94,1.62l-15.22,8.79c-.52.3-1,.06-1-.54v-5.77a2.07,2.07,0,0,1,.93-1.63Z" style="fill:#fff"></path></g><path d="M252.75,91.52c.51-.3.94-.06.94.54l0,5.77a2.08,2.08,0,0,1-.94,1.63l-15.22,8.79c-.52.29-1,.06-1-.54v-5.78a2,2,0,0,1,.93-1.62Z" style="fill:#37474f"></path><path d="M252.75,111.35c.51-.29.94-.06.94.54l0,5.78a2.06,2.06,0,0,1-.94,1.62l-15.22,8.79c-.52.3-1,.06-1-.54v-5.77a2.07,2.07,0,0,1,.93-1.63Z" style="fill:#37474f"></path><path d="M262.87,95.48c.51-.29.94-.06.94.54l0,5.78a2.06,2.06,0,0,1-.94,1.62l-15.22,8.79c-.52.3-.95.06-.95-.54V105.9a2.07,2.07,0,0,1,.93-1.63Z" style="fill:#37474f"></path><g style="opacity:0.07"><path d="M252.75,91.52c.51-.3.94-.06.94.54l0,5.77a2.08,2.08,0,0,1-.94,1.63l-15.22,8.79c-.52.29-1,.06-1-.54v-5.78a2,2,0,0,1,.93-1.62Z" style="fill:#fff"></path><path d="M252.75,111.35c.51-.29.94-.06.94.54l0,5.78a2.06,2.06,0,0,1-.94,1.62l-15.22,8.79c-.52.3-1,.06-1-.54v-5.77a2.07,2.07,0,0,1,.93-1.63Z" style="fill:#fff"></path><path d="M262.87,95.48c.51-.29.94-.06.94.54l0,5.78a2.06,2.06,0,0,1-.94,1.62l-15.22,8.79c-.52.3-.95.06-.95-.54V105.9a2.07,2.07,0,0,1,.93-1.63Z" style="fill:#fff"></path></g><path d="M335,89.63c-.52-.3-.94-.06-.94.54l0,5.78a2.08,2.08,0,0,0,.94,1.62l15.22,8.79c.52.3.94.06.95-.54v-5.77a2.08,2.08,0,0,0-.94-1.63Z" style="fill:#37474f"></path><path d="M335,109.47c-.52-.3-.94-.06-.94.53l0,5.78a2.06,2.06,0,0,0,.94,1.62l15.22,8.79c.52.3.94.06.95-.54v-5.77a2,2,0,0,0-.94-1.62Z" style="fill:#37474f"></path><path d="M344.07,104.79c-.52-.3-.94-.06-.95.54v5.77a2,2,0,0,0,.94,1.62l15.22,8.79c.52.3.94.06.94-.53l0-5.78a2.06,2.06,0,0,0-.94-1.62Z" style="fill:#37474f"></path><path d="M324.91,93.6c-.52-.3-.94-.06-.94.53l0,5.78a2.06,2.06,0,0,0,.94,1.62l15.22,8.79c.52.3.94.06.95-.54V104a2,2,0,0,0-.94-1.62Z" style="fill:#37474f"></path><g style="opacity:0.07"><path d="M335,89.63c-.52-.3-.94-.06-.94.54l0,5.78a2.08,2.08,0,0,0,.94,1.62l15.22,8.79c.52.3.94.06.95-.54v-5.77a2.08,2.08,0,0,0-.94-1.63Z" style="fill:#fff"></path><path d="M335,109.47c-.52-.3-.94-.06-.94.53l0,5.78a2.06,2.06,0,0,0,.94,1.62l15.22,8.79c.52.3.94.06.95-.54v-5.77a2,2,0,0,0-.94-1.62Z" style="fill:#fff"></path><path d="M344.07,104.79c-.52-.3-.94-.06-.95.54v5.77a2,2,0,0,0,.94,1.62l15.22,8.79c.52.3.94.06.94-.53l0-5.78a2.06,2.06,0,0,0-.94-1.62Z" style="fill:#fff"></path><path d="M324.91,93.6c-.52-.3-.94-.06-.94.53l0,5.78a2.06,2.06,0,0,0,.94,1.62l15.22,8.79c.52.3.94.06.95-.54V104a2,2,0,0,0-.94-1.62Z" style="fill:#fff"></path></g><path d="M437.19,231.77c-.51-.3-.94-.06-.94.54l0,5.77a2.08,2.08,0,0,0,.94,1.63l15.22,8.78c.52.3.95.07.95-.53v-5.78a2,2,0,0,0-.93-1.62Z" style="fill:#37474f"></path><path d="M437.19,251.6c-.51-.3-.94-.06-.94.54l0,5.78a2.08,2.08,0,0,0,.94,1.62l15.22,8.79c.52.3.95.06.95-.54V262a2.07,2.07,0,0,0-.93-1.63Z" style="fill:#37474f"></path><path d="M446.23,246.92c-.52-.29-.94-.06-.94.54l0,5.78a2.08,2.08,0,0,0,.94,1.62l15.22,8.79c.52.3.94.06.95-.54v-5.77a2.08,2.08,0,0,0-.94-1.63Z" style="fill:#37474f"></path><g style="opacity:0.07"><path d="M437.19,231.77c-.51-.3-.94-.06-.94.54l0,5.77a2.08,2.08,0,0,0,.94,1.63l15.22,8.78c.52.3.95.07.95-.53v-5.78a2,2,0,0,0-.93-1.62Z" style="fill:#fff"></path><path d="M437.19,251.6c-.51-.3-.94-.06-.94.54l0,5.78a2.08,2.08,0,0,0,.94,1.62l15.22,8.79c.52.3.95.06.95-.54V262a2.07,2.07,0,0,0-.93-1.63Z" style="fill:#fff"></path><path d="M446.23,246.92c-.52-.29-.94-.06-.94.54l0,5.78a2.08,2.08,0,0,0,.94,1.62l15.22,8.79c.52.3.94.06.95-.54v-5.77a2.08,2.08,0,0,0-.94-1.63Z" style="fill:#fff"></path></g></g><g id="freepik--Floor--inject-59"><path d="M396.32,262.41c81.33,46.95,81.75,123.08,1,170s-212.22,47-293.55,0-81.76-123.08-1-170S315,215.45,396.32,262.41Z" style="fill:#455a64"></path><g style="opacity:0.05"><path d="M396.32,262.41c81.33,46.95,81.75,123.08,1,170s-212.22,47-293.55,0-81.76-123.08-1-170S315,215.45,396.32,262.41Z" style="fill:#fff"></path></g></g><g id="freepik--Shadows--inject-59"><path d="M374.89,428.24,340,408.11a2.93,2.93,0,0,0-2.92,0l-34.63,20.13a1.45,1.45,0,0,0,0,2.52l34.87,20.13a2.93,2.93,0,0,0,2.92,0l34.63-20.13A1.45,1.45,0,0,0,374.89,428.24Z" style="opacity:0.2"></path><path d="M84.5,393.59l61.91-36,77.72,44.87a1.05,1.05,0,0,1,0,1.81l-59.81,34.76a4.2,4.2,0,0,1-4.2,0L84.5,395.4A1.05,1.05,0,0,1,84.5,393.59Z" style="opacity:0.2"></path><path d="M165,289.09l56.85-33,71.38,41.21a1,1,0,0,1,0,1.67l-54.93,31.92a3.86,3.86,0,0,1-3.86,0L165,290.75A1,1,0,0,1,165,289.09Z" style="opacity:0.2"></path><path d="M422.46,308.8c17.71,10.23,17.8,26.8.21,37s-46.2,10.22-63.91,0-17.8-26.79-.21-37S404.76,298.58,422.46,308.8Z" style="opacity:0.2"></path><path d="M348.36,244l-47.22-27.26a4,4,0,0,0-3.95,0L250.3,244a2,2,0,0,0,0,3.41l47.22,27.26a4,4,0,0,0,4,0l46.88-27.25A2,2,0,0,0,348.36,244Z" style="opacity:0.2"></path><path d="M148.46,327.78l-47.22-27.27a4,4,0,0,0-4,0L50.39,327.77a2,2,0,0,0,0,3.41l47.22,27.27a4,4,0,0,0,3.95,0l46.89-27.25A2,2,0,0,0,148.46,327.78Z" style="opacity:0.2"></path><path d="M226,240.45l-31.3-18.07a2.61,2.61,0,0,0-2.62,0L161,240.45a1.3,1.3,0,0,0,0,2.26l31.3,18.07a2.61,2.61,0,0,0,2.62,0L226,242.72A1.31,1.31,0,0,0,226,240.45Z" style="opacity:0.2"></path><path d="M315,377.18l-35,20.2a3.17,3.17,0,0,1-3.18,0l-92.22-53.25a1.05,1.05,0,0,1,0-1.83l36.57-21.12L315,375.35A1.06,1.06,0,0,1,315,377.18Z" style="opacity:0.2"></path><path d="M304.93,446.77c5.08,2.93,5.1,7.68.06,10.61s-13.25,2.94-18.33,0-5.1-7.68-.06-10.61S299.85,443.84,304.93,446.77Z" style="opacity:0.2"></path></g><g id="freepik--Boxes--inject-59"><polygon points="372.92 397.24 338.61 377.43 304.53 397.24 338.83 417.04 372.92 397.24" style="fill:#455a64"></polygon><polygon points="338.83 417.04 338.75 448.17 372.83 428.37 372.92 397.24 338.83 417.04" style="fill:#37474f"></polygon><polygon points="304.53 397.24 304.44 428.37 338.75 448.17 338.83 417.04 304.53 397.24" style="fill:#263238"></polygon><polygon points="325.22 385.21 318.59 389.07 352.89 408.87 359.53 405.02 325.22 385.21" style="fill:#37474f"></polygon><polygon points="359.53 417.04 352.89 420.9 352.89 408.87 359.53 405.02 359.53 417.04" style="fill:#263238"></polygon><polygon points="359.53 436.07 352.89 439.93 352.89 431.99 359.53 428.13 359.53 436.07" style="fill:#263238"></polygon><g style="opacity:0.2"><polygon points="372.92 397.24 338.61 377.43 304.53 397.24 338.83 417.04 372.92 397.24" style="fill:#fff"></polygon><polygon points="338.83 417.04 338.75 448.17 372.83 428.37 372.92 397.24 338.83 417.04" style="fill:#fff"></polygon><polygon points="304.53 397.24 304.44 428.37 338.75 448.17 338.83 417.04 304.53 397.24" style="fill:#fff"></polygon></g><polygon points="341.1 211.92 300.44 188.44 260.04 211.92 300.7 235.39 341.1 211.92" style="fill:#455a64"></polygon><polygon points="300.7 235.39 300.6 272.29 340.99 248.81 341.1 211.92 300.7 235.39" style="fill:#37474f"></polygon><polygon points="260.04 211.92 259.94 248.81 300.6 272.29 300.7 235.39 260.04 211.92" style="fill:#263238"></polygon><polygon points="284.57 197.67 276.7 202.24 317.36 225.71 325.23 221.14 284.57 197.67" style="fill:#37474f"></polygon><polygon points="325.23 235.39 317.36 239.97 317.36 225.71 325.23 221.14 325.23 235.39" style="fill:#263238"></polygon><polygon points="325.23 257.95 317.36 262.52 317.36 253.11 325.23 248.54 325.23 257.95" style="fill:#263238"></polygon><g style="opacity:0.2"><polygon points="341.1 211.92 300.44 188.44 260.04 211.92 300.7 235.39 341.1 211.92" style="fill:#fff"></polygon><polygon points="300.7 235.39 300.6 272.29 340.99 248.81 341.1 211.92 300.7 235.39" style="fill:#fff"></polygon><polygon points="260.04 211.92 259.94 248.81 300.6 272.29 300.7 235.39 260.04 211.92" style="fill:#fff"></polygon></g><polygon points="146.37 287.12 99.33 259.97 52.6 287.12 99.64 314.28 146.37 287.12" style="fill:#455a64"></polygon><polygon points="99.64 314.28 99.52 356.96 146.25 329.8 146.37 287.12 99.64 314.28" style="fill:#37474f"></polygon><polygon points="52.6 287.12 52.48 329.8 99.52 356.96 99.64 314.28 52.6 287.12" style="fill:#263238"></polygon><polygon points="80.98 270.63 71.88 275.92 118.91 303.08 128.01 297.79 80.98 270.63" style="fill:#37474f"></polygon><polygon points="128.01 314.28 118.91 319.56 118.91 303.08 128.01 297.79 128.01 314.28" style="fill:#263238"></polygon><polygon points="128.01 340.37 118.91 345.66 118.91 334.77 128.01 329.48 128.01 340.37" style="fill:#263238"></polygon><g style="opacity:0.2"><polygon points="146.37 287.12 99.33 259.97 52.6 287.12 99.64 314.28 146.37 287.12" style="fill:#fff"></polygon><polygon points="99.64 314.28 99.52 356.96 146.25 329.8 146.37 287.12 99.64 314.28" style="fill:#fff"></polygon><polygon points="52.6 287.12 52.48 329.8 99.52 356.96 99.64 314.28 52.6 287.12" style="fill:#fff"></polygon></g><polygon points="139.66 251.94 106.31 232.69 73.18 251.94 106.53 271.19 139.66 251.94" style="fill:#455a64"></polygon><polygon points="106.53 271.19 106.44 301.45 139.57 282.2 139.66 251.94 106.53 271.19" style="fill:#37474f"></polygon><polygon points="73.18 251.94 73.09 282.2 106.44 301.45 106.53 271.19 73.18 251.94" style="fill:#263238"></polygon><polygon points="93.3 240.25 86.84 244 120.19 263.25 126.64 259.5 93.3 240.25" style="fill:#37474f"></polygon><polygon points="126.64 271.19 120.19 274.94 120.19 263.25 126.64 259.5 126.64 271.19" style="fill:#263238"></polygon><polygon points="126.64 289.69 120.19 293.44 120.19 285.72 126.64 281.97 126.64 289.69" style="fill:#263238"></polygon><g style="opacity:0.2"><polygon points="139.66 251.94 106.31 232.69 73.18 251.94 106.53 271.19 139.66 251.94" style="fill:#fff"></polygon><polygon points="106.53 271.19 106.44 301.45 139.57 282.2 139.66 251.94 106.53 271.19" style="fill:#fff"></polygon><polygon points="73.18 251.94 73.09 282.2 106.44 301.45 106.53 271.19 73.18 251.94" style="fill:#fff"></polygon></g><polygon points="223.58 214.35 193.34 196.89 163.3 214.35 193.54 231.81 223.58 214.35" style="fill:#455a64"></polygon><polygon points="193.54 231.81 193.46 259.25 223.5 241.79 223.58 214.35 193.54 231.81" style="fill:#37474f"></polygon><polygon points="163.3 214.35 163.22 241.79 193.46 259.25 193.54 231.81 163.3 214.35" style="fill:#263238"></polygon><polygon points="181.54 203.75 175.69 207.15 205.93 224.61 211.78 221.21 181.54 203.75" style="fill:#37474f"></polygon><polygon points="211.78 231.81 205.93 235.21 205.93 224.61 211.78 221.21 211.78 231.81" style="fill:#263238"></polygon><polygon points="211.78 248.58 205.93 251.98 205.93 244.98 211.78 241.58 211.78 248.58" style="fill:#263238"></polygon><g style="opacity:0.2"><polygon points="223.58 214.35 193.34 196.89 163.3 214.35 193.54 231.81 223.58 214.35" style="fill:#fff"></polygon><polygon points="193.54 231.81 193.46 259.25 223.5 241.79 223.58 214.35 193.54 231.81" style="fill:#fff"></polygon><polygon points="163.3 214.35 163.22 241.79 193.46 259.25 193.54 231.81 163.3 214.35" style="fill:#fff"></polygon></g></g><g id="freepik--Wood--inject-59"><polygon points="141.69 422.97 151.58 428.71 219.54 389.46 209.65 383.71 141.69 422.97" style="fill:#455a64"></polygon><polygon points="141.69 422.97 141.7 425.18 151.59 430.93 151.58 428.71 141.69 422.97" style="fill:#37474f"></polygon><polygon points="151.58 428.71 151.59 430.93 219.54 391.67 219.54 389.46 151.58 428.71" style="fill:#263238"></polygon><g style="opacity:0.1"><polygon points="219.54 389.46 209.65 383.71 141.69 422.97 141.7 425.18 151.59 430.93 219.54 391.67 219.54 389.46" style="fill:#fff"></polygon><polygon points="167.38 359.91 157.49 354.16 89.54 393.42 89.55 395.63 99.44 401.38 167.39 362.13 167.38 359.91" style="fill:#fff"></polygon></g><polygon points="223.58 394.95 213.69 400.7 136.75 356.28 146.64 350.53 223.58 394.95" style="fill:#455a64"></polygon><polygon points="223.58 394.95 223.57 397.16 213.68 402.91 213.69 400.7 223.58 394.95" style="fill:#37474f"></polygon><polygon points="213.69 400.7 213.68 402.91 136.75 358.49 136.75 356.28 213.69 400.7" style="fill:#263238"></polygon><polygon points="210.65 402.46 200.76 408.21 123.83 363.79 133.72 358.04 210.65 402.46" style="fill:#455a64"></polygon><polygon points="210.65 402.46 210.65 404.67 200.75 410.42 200.76 408.21 210.65 402.46" style="fill:#37474f"></polygon><polygon points="200.76 408.21 200.75 410.42 123.82 366 123.83 363.79 200.76 408.21" style="fill:#263238"></polygon><polygon points="197.73 409.97 187.84 415.72 110.9 371.3 120.79 365.55 197.73 409.97" style="fill:#455a64"></polygon><polygon points="197.73 409.97 197.72 412.19 187.83 417.93 187.84 415.72 197.73 409.97" style="fill:#37474f"></polygon><polygon points="187.84 415.72 187.83 417.93 110.9 373.52 110.9 371.3 187.84 415.72" style="fill:#263238"></polygon><polygon points="184.8 417.48 174.91 423.23 97.98 378.81 107.87 373.06 184.8 417.48" style="fill:#455a64"></polygon><polygon points="184.8 417.48 184.8 419.7 174.91 425.45 174.91 423.23 184.8 417.48" style="fill:#37474f"></polygon><polygon points="174.91 423.23 174.91 425.45 97.97 381.03 97.98 378.81 174.91 423.23" style="fill:#263238"></polygon><polygon points="171.88 424.99 161.99 430.74 85.05 386.32 94.94 380.57 171.88 424.99" style="fill:#455a64"></polygon><polygon points="171.88 424.99 171.87 427.21 161.98 432.96 161.99 430.74 171.88 424.99" style="fill:#37474f"></polygon><polygon points="161.99 430.74 161.98 432.96 85.05 388.54 85.05 386.32 161.99 430.74" style="fill:#263238"></polygon><g style="opacity:0.15"><polygon points="146.64 350.53 136.75 356.28 136.75 358.49 213.68 402.91 223.57 397.16 223.58 394.95 146.64 350.53" style="fill:#fff"></polygon><polygon points="123.83 363.79 123.82 366 200.75 410.42 210.65 404.67 210.65 402.46 133.72 358.04 123.83 363.79" style="fill:#fff"></polygon><polygon points="110.9 371.3 110.89 373.52 187.83 417.93 197.72 412.19 197.73 409.97 120.79 365.55 110.9 371.3" style="fill:#fff"></polygon><polygon points="97.98 378.81 97.97 381.03 174.91 425.45 184.8 419.7 184.8 417.48 107.87 373.06 97.98 378.81" style="fill:#fff"></polygon><polygon points="85.05 386.32 85.05 388.54 161.98 432.96 171.87 427.21 171.88 424.99 94.94 380.57 85.05 386.32" style="fill:#fff"></polygon></g><g style="isolation:isolate"><polygon points="169.64 290.05 178.72 295.33 241.13 259.27 232.05 253.99 169.64 290.05" style="fill:#455a64"></polygon><polygon points="169.64 290.05 169.64 292.08 178.73 297.36 178.72 295.33 169.64 290.05" style="fill:#37474f"></polygon><polygon points="178.72 295.33 178.73 297.36 241.14 261.31 241.13 259.27 178.72 295.33" style="fill:#263238"></polygon></g><g style="opacity:0.1"><polygon points="289.03 286.41 279.94 281.13 217.53 317.18 217.54 319.21 226.63 324.5 289.03 288.44 289.03 286.41" style="fill:#fff"></polygon><polygon points="241.13 259.27 232.05 253.99 169.64 290.05 169.64 292.08 178.73 297.36 241.14 261.31 241.13 259.27" style="fill:#fff"></polygon></g><g style="isolation:isolate"><polygon points="292.74 291.45 283.65 296.73 213 255.94 222.08 250.66 292.74 291.45" style="fill:#455a64"></polygon><polygon points="292.74 291.45 292.73 293.48 283.65 298.76 283.65 296.73 292.74 291.45" style="fill:#37474f"></polygon><polygon points="283.65 296.73 283.65 298.76 212.99 257.97 213 255.94 283.65 296.73" style="fill:#263238"></polygon></g><g style="isolation:isolate"><polygon points="280.87 298.35 271.78 303.63 201.13 262.83 210.21 257.55 280.87 298.35" style="fill:#455a64"></polygon><polygon points="280.87 298.35 280.86 300.38 271.78 305.66 271.78 303.63 280.87 298.35" style="fill:#37474f"></polygon><polygon points="271.78 303.63 271.78 305.66 201.12 264.87 201.13 262.83 271.78 303.63" style="fill:#263238"></polygon></g><g style="isolation:isolate"><polygon points="269 305.25 259.91 310.53 189.26 269.73 198.34 264.45 269 305.25" style="fill:#455a64"></polygon><polygon points="269 305.25 268.99 307.28 259.91 312.56 259.91 310.53 269 305.25" style="fill:#37474f"></polygon><polygon points="259.91 310.53 259.91 312.56 189.25 271.77 189.26 269.73 259.91 310.53" style="fill:#263238"></polygon></g><g style="isolation:isolate"><polygon points="257.13 312.14 248.04 317.42 177.39 276.63 186.47 271.35 257.13 312.14" style="fill:#455a64"></polygon><polygon points="257.13 312.14 257.12 314.18 248.04 319.46 248.04 317.42 257.13 312.14" style="fill:#37474f"></polygon><polygon points="248.04 317.42 248.04 319.46 177.38 278.67 177.39 276.63 248.04 317.42" style="fill:#263238"></polygon></g><g style="isolation:isolate"><polygon points="245.26 319.04 236.17 324.32 165.52 283.53 174.6 278.25 245.26 319.04" style="fill:#455a64"></polygon><polygon points="245.26 319.04 245.25 321.08 236.17 326.36 236.17 324.32 245.26 319.04" style="fill:#37474f"></polygon><polygon points="236.17 324.32 236.17 326.36 165.51 285.56 165.52 283.53 236.17 324.32" style="fill:#263238"></polygon></g><g style="opacity:0.1"><polygon points="222.08 250.66 213 255.94 212.99 257.97 283.65 298.76 292.73 293.48 292.74 291.45 222.08 250.66" style="fill:#fff"></polygon><polygon points="201.13 262.83 201.12 264.87 271.78 305.66 280.86 300.38 280.87 298.35 210.21 257.55 201.13 262.83" style="fill:#fff"></polygon><polygon points="189.26 269.73 189.25 271.77 259.91 312.56 268.99 307.28 269 305.25 198.34 264.45 189.26 269.73" style="fill:#fff"></polygon><polygon points="177.39 276.63 177.38 278.67 248.04 319.46 257.12 314.18 257.13 312.14 186.47 271.35 177.39 276.63" style="fill:#fff"></polygon><polygon points="165.52 283.53 165.51 285.56 236.17 326.36 245.25 321.08 245.26 319.04 174.6 278.25 165.52 283.53" style="fill:#fff"></polygon></g><g style="isolation:isolate"><polygon points="217.53 310.28 226.62 315.56 289.03 279.51 279.94 274.23 217.53 310.28" style="fill:#455a64"></polygon><polygon points="217.53 310.28 217.54 312.32 226.63 317.6 226.62 315.56 217.53 310.28" style="fill:#37474f"></polygon><polygon points="226.62 315.56 226.63 317.6 289.03 281.54 289.03 279.51 226.62 315.56" style="fill:#263238"></polygon></g><g style="isolation:isolate"><polygon points="169.64 283.15 178.72 288.43 241.13 252.37 232.05 247.09 169.64 283.15" style="fill:#455a64"></polygon><polygon points="169.64 283.15 169.64 285.18 178.73 290.46 178.72 288.43 169.64 283.15" style="fill:#37474f"></polygon><polygon points="178.72 288.43 178.73 290.46 241.14 254.41 241.13 252.37 178.72 288.43" style="fill:#263238"></polygon></g><g style="opacity:0.1"><polygon points="289.03 279.51 279.94 274.23 217.53 310.28 217.54 312.32 226.63 317.6 289.03 281.54 289.03 279.51" style="fill:#fff"></polygon><polygon points="241.13 252.37 232.05 247.09 169.64 283.15 169.64 285.18 178.73 290.46 241.14 254.41 241.13 252.37" style="fill:#fff"></polygon></g><g style="isolation:isolate"><polygon points="292.74 284.55 283.65 289.83 213 249.04 222.08 243.76 292.74 284.55" style="fill:#455a64"></polygon><polygon points="292.74 284.55 292.73 286.58 283.65 291.87 283.65 289.83 292.74 284.55" style="fill:#37474f"></polygon><polygon points="283.65 289.83 283.65 291.87 212.99 251.07 213 249.04 283.65 289.83" style="fill:#263238"></polygon></g><g style="isolation:isolate"><polygon points="280.87 291.45 271.78 296.73 201.13 255.94 210.21 250.66 280.87 291.45" style="fill:#455a64"></polygon><polygon points="280.87 291.45 280.86 293.48 271.78 298.76 271.78 296.73 280.87 291.45" style="fill:#37474f"></polygon><polygon points="271.78 296.73 271.78 298.76 201.12 257.97 201.13 255.94 271.78 296.73" style="fill:#263238"></polygon></g><g style="isolation:isolate"><polygon points="269 298.35 259.91 303.63 189.26 262.83 198.34 257.55 269 298.35" style="fill:#455a64"></polygon><polygon points="269 298.35 268.99 300.38 259.91 305.66 259.91 303.63 269 298.35" style="fill:#37474f"></polygon><polygon points="259.91 303.63 259.91 305.66 189.25 264.87 189.26 262.83 259.91 303.63" style="fill:#263238"></polygon></g><g style="isolation:isolate"><polygon points="257.13 305.25 248.04 310.53 177.39 269.73 186.47 264.45 257.13 305.25" style="fill:#455a64"></polygon><polygon points="257.13 305.25 257.12 307.28 248.04 312.56 248.04 310.53 257.13 305.25" style="fill:#37474f"></polygon><polygon points="248.04 310.53 248.04 312.56 177.38 271.77 177.39 269.73 248.04 310.53" style="fill:#263238"></polygon></g><g style="isolation:isolate"><polygon points="245.26 312.14 236.17 317.42 165.52 276.63 174.6 271.35 245.26 312.14" style="fill:#455a64"></polygon><polygon points="245.26 312.14 245.25 314.18 236.17 319.46 236.17 317.42 245.26 312.14" style="fill:#37474f"></polygon><polygon points="236.17 317.42 236.17 319.46 165.51 278.67 165.52 276.63 236.17 317.42" style="fill:#263238"></polygon></g><g style="opacity:0.1"><polygon points="222.08 243.76 213 249.04 212.99 251.07 283.65 291.87 292.73 286.58 292.74 284.55 222.08 243.76" style="fill:#fff"></polygon><polygon points="201.13 255.94 201.12 257.97 271.78 298.76 280.86 293.48 280.87 291.45 210.21 250.66 201.13 255.94" style="fill:#fff"></polygon><polygon points="189.26 262.83 189.25 264.87 259.91 305.66 268.99 300.38 269 298.35 198.34 257.55 189.26 262.83" style="fill:#fff"></polygon><polygon points="177.39 269.73 177.38 271.77 248.04 312.56 257.12 307.28 257.13 305.25 186.47 264.45 177.39 269.73" style="fill:#fff"></polygon><polygon points="165.52 276.63 165.51 278.67 236.17 319.46 245.25 314.18 245.26 312.14 174.6 271.35 165.52 276.63" style="fill:#fff"></polygon></g><g style="isolation:isolate"><polygon points="217.53 303.38 226.62 308.66 289.03 272.61 279.94 267.33 217.53 303.38" style="fill:#455a64"></polygon><polygon points="217.53 303.38 217.54 305.42 226.63 310.7 226.62 308.66 217.53 303.38" style="fill:#37474f"></polygon><polygon points="226.62 308.66 226.63 310.7 289.03 274.64 289.03 272.61 226.62 308.66" style="fill:#263238"></polygon></g><g style="isolation:isolate"><polygon points="169.64 276.25 178.72 281.53 241.13 245.47 232.05 240.19 169.64 276.25" style="fill:#455a64"></polygon><polygon points="169.64 276.25 169.64 278.28 178.73 283.56 178.72 281.53 169.64 276.25" style="fill:#37474f"></polygon><polygon points="178.72 281.53 178.73 283.56 241.14 247.51 241.13 245.47 178.72 281.53" style="fill:#263238"></polygon></g><g style="opacity:0.1"><polygon points="289.03 272.61 279.94 267.33 217.53 303.38 217.54 305.42 226.63 310.7 289.03 274.64 289.03 272.61" style="fill:#fff"></polygon><polygon points="241.13 245.47 232.05 240.19 169.64 276.25 169.64 278.28 178.73 283.56 241.14 247.51 241.13 245.47" style="fill:#fff"></polygon></g><g style="isolation:isolate"><polygon points="292.74 277.65 283.65 282.93 213 242.14 222.08 236.86 292.74 277.65" style="fill:#455a64"></polygon><polygon points="292.74 277.65 292.73 279.69 283.65 284.97 283.65 282.93 292.74 277.65" style="fill:#37474f"></polygon><polygon points="283.65 282.93 283.65 284.97 212.99 244.17 213 242.14 283.65 282.93" style="fill:#263238"></polygon></g><g style="isolation:isolate"><polygon points="280.87 284.55 271.78 289.83 201.13 249.04 210.21 243.76 280.87 284.55" style="fill:#455a64"></polygon><polygon points="280.87 284.55 280.86 286.58 271.78 291.87 271.78 289.83 280.87 284.55" style="fill:#37474f"></polygon><polygon points="271.78 289.83 271.78 291.87 201.12 251.07 201.13 249.04 271.78 289.83" style="fill:#263238"></polygon></g><g style="isolation:isolate"><polygon points="269 291.45 259.91 296.73 189.26 255.94 198.34 250.66 269 291.45" style="fill:#455a64"></polygon><polygon points="269 291.45 268.99 293.48 259.91 298.76 259.91 296.73 269 291.45" style="fill:#37474f"></polygon><polygon points="259.91 296.73 259.91 298.76 189.25 257.97 189.26 255.94 259.91 296.73" style="fill:#263238"></polygon></g><g style="isolation:isolate"><polygon points="257.13 298.35 248.04 303.63 177.39 262.83 186.47 257.55 257.13 298.35" style="fill:#455a64"></polygon><polygon points="257.13 298.35 257.12 300.38 248.04 305.66 248.04 303.63 257.13 298.35" style="fill:#37474f"></polygon><polygon points="248.04 303.63 248.04 305.66 177.38 264.87 177.39 262.83 248.04 303.63" style="fill:#263238"></polygon></g><g style="isolation:isolate"><polygon points="245.26 305.25 236.17 310.53 165.52 269.73 174.6 264.45 245.26 305.25" style="fill:#455a64"></polygon><polygon points="245.26 305.25 245.25 307.28 236.17 312.56 236.17 310.53 245.26 305.25" style="fill:#37474f"></polygon><polygon points="236.17 310.53 236.17 312.56 165.51 271.77 165.52 269.73 236.17 310.53" style="fill:#263238"></polygon></g><g style="opacity:0.1"><polygon points="222.08 236.86 213 242.14 212.99 244.17 283.65 284.97 292.73 279.69 292.74 277.65 222.08 236.86" style="fill:#fff"></polygon><polygon points="201.13 249.04 201.12 251.07 271.78 291.87 280.86 286.58 280.87 284.55 210.21 243.76 201.13 249.04" style="fill:#fff"></polygon><polygon points="189.26 255.94 189.25 257.97 259.91 298.76 268.99 293.48 269 291.45 198.34 250.66 189.26 255.94" style="fill:#fff"></polygon><polygon points="177.39 262.83 177.38 264.87 248.04 305.66 257.12 300.38 257.13 298.35 186.47 257.55 177.39 262.83" style="fill:#fff"></polygon><polygon points="165.52 269.73 165.51 271.77 236.17 312.56 245.25 307.28 245.26 305.25 174.6 264.45 165.52 269.73" style="fill:#fff"></polygon></g><polygon points="89.54 393.42 99.43 399.17 167.38 359.91 157.49 354.16 89.54 393.42" style="fill:#455a64"></polygon><polygon points="89.54 393.42 89.55 395.63 99.44 401.38 99.43 399.17 89.54 393.42" style="fill:#37474f"></polygon><polygon points="99.43 399.17 99.44 401.38 167.39 362.13 167.38 359.91 99.43 399.17" style="fill:#263238"></polygon><polygon points="217.53 317.18 226.62 322.46 289.03 286.41 279.94 281.13 217.53 317.18" style="fill:#455a64"></polygon><polygon points="217.53 317.18 217.54 319.21 226.63 324.5 226.62 322.46 217.53 317.18" style="fill:#37474f"></polygon><polygon points="226.62 322.46 226.63 324.5 289.03 288.44 289.03 286.41 226.62 322.46" style="fill:#263238"></polygon></g><g id="freepik--Pipes--inject-59"><path d="M304.48,377.48l9.6-15.92-88.3-51c-1.21-.79-2.92-.73-4.83.37a14.49,14.49,0,0,0-6.58,11.4c0,2,.72,3.49,1.87,4.19h0l.06,0,0,0Z" style="fill:#455a64"></path><path d="M304.48,377.48l9.6-15.92-88.3-51c-1.21-.79-2.92-.73-4.83.37a14.49,14.49,0,0,0-6.58,11.4c0,2,.72,3.49,1.87,4.19h0l.06,0,0,0Z" style="fill:#fff;opacity:0.15"></path><g style="isolation:isolate"><path d="M309.33,362c3.64-2.11,6.61-.42,6.62,3.77a14.51,14.51,0,0,1-6.58,11.4c-3.65,2.1-6.61.41-6.62-3.78A14.47,14.47,0,0,1,309.33,362Zm0,13a10.38,10.38,0,0,0,4.72-8.17c0-3-2.13-4.22-4.75-2.71a10.4,10.4,0,0,0-4.71,8.18c0,3,2.13,4.21,4.74,2.7" style="fill:#455a64"></path><path d="M309.34,367.55c1-.55,1.75-.11,1.76,1a3.87,3.87,0,0,1-1.74,3c-1,.56-1.76.11-1.76-1A3.87,3.87,0,0,1,309.34,367.55Z" style="fill:#37474f"></path><path d="M309.33,364.12c2.62-1.51,4.74-.3,4.75,2.71a10.38,10.38,0,0,1-4.72,8.17c-2.61,1.51-4.74.3-4.74-2.7A10.4,10.4,0,0,1,309.33,364.12Zm0,7.45a3.87,3.87,0,0,0,1.74-3c0-1.11-.79-1.55-1.76-1a3.87,3.87,0,0,0-1.74,3c0,1.11.79,1.56,1.76,1" style="fill:#263238"></path></g><path d="M309.33,362a14.51,14.51,0,0,0-6.58,11.4c0,4.19,3,5.88,6.62,3.78a14.51,14.51,0,0,0,6.58-11.4C315.94,361.56,313,359.87,309.33,362Z" style="fill:#fff;opacity:0.1"></path><path d="M290.46,385.67l9.6-15.93-88.3-51c-1.21-.79-2.92-.74-4.83.36a14.51,14.51,0,0,0-6.58,11.4c0,2.05.72,3.49,1.87,4.19h0l.06,0h0Z" style="fill:#455a64"></path><path d="M290.46,385.67l9.6-15.93-88.3-51c-1.21-.79-2.92-.74-4.83.36a14.51,14.51,0,0,0-6.58,11.4c0,2.05.72,3.49,1.87,4.19h0l.06,0h0Z" style="fill:#fff;opacity:0.15"></path><g style="isolation:isolate"><path d="M295.31,370.16c3.64-2.11,6.61-.41,6.62,3.77a14.49,14.49,0,0,1-6.58,11.4c-3.65,2.11-6.61.42-6.62-3.77A14.47,14.47,0,0,1,295.31,370.16Zm0,13a10.39,10.39,0,0,0,4.72-8.18c0-3-2.13-4.21-4.75-2.7a10.42,10.42,0,0,0-4.72,8.17c0,3,2.14,4.22,4.75,2.71" style="fill:#455a64"></path><path d="M295.32,375.74c1-.56,1.75-.11,1.76,1a3.85,3.85,0,0,1-1.75,3c-1,.55-1.75.11-1.75-1A3.85,3.85,0,0,1,295.32,375.74Z" style="fill:#37474f"></path><path d="M295.31,372.31c2.62-1.51,4.74-.3,4.75,2.7a10.39,10.39,0,0,1-4.72,8.18c-2.61,1.51-4.74.29-4.75-2.71A10.42,10.42,0,0,1,295.31,372.31Zm0,7.45a3.85,3.85,0,0,0,1.75-3c0-1.11-.79-1.56-1.76-1a3.85,3.85,0,0,0-1.74,3c0,1.11.79,1.55,1.75,1" style="fill:#263238"></path></g><path d="M295.31,370.16a14.47,14.47,0,0,0-6.58,11.4c0,4.19,3,5.88,6.62,3.77a14.49,14.49,0,0,0,6.58-11.4C301.92,369.75,299,368.05,295.31,370.16Z" style="fill:#fff;opacity:0.1"></path><path d="M276.43,393.85,286,377.93l-88.3-51c-1.21-.79-2.92-.74-4.83.37a14.47,14.47,0,0,0-6.58,11.39c0,2.05.72,3.5,1.87,4.2h0l.06,0,0,0Z" style="fill:#455a64"></path><path d="M276.43,393.85,286,377.93l-88.3-51c-1.21-.79-2.92-.74-4.83.37a14.47,14.47,0,0,0-6.58,11.39c0,2.05.72,3.5,1.87,4.2h0l.06,0,0,0Z" style="fill:#fff;opacity:0.15"></path><g style="isolation:isolate"><path d="M281.29,378.34c3.64-2.1,6.61-.41,6.62,3.78a14.51,14.51,0,0,1-6.58,11.4c-3.65,2.1-6.61.41-6.62-3.78A14.48,14.48,0,0,1,281.29,378.34Zm0,13A10.38,10.38,0,0,0,286,383.2c0-3-2.13-4.22-4.75-2.71a10.44,10.44,0,0,0-4.72,8.17c0,3,2.14,4.22,4.75,2.71" style="fill:#455a64"></path><path d="M281.3,383.92c1-.56,1.75-.11,1.76,1a3.85,3.85,0,0,1-1.75,3c-1,.56-1.75.11-1.75-1A3.87,3.87,0,0,1,281.3,383.92Z" style="fill:#37474f"></path><path d="M281.29,380.49c2.62-1.51,4.74-.3,4.75,2.71a10.38,10.38,0,0,1-4.72,8.17c-2.61,1.51-4.74.3-4.75-2.71A10.44,10.44,0,0,1,281.29,380.49Zm0,7.45a3.85,3.85,0,0,0,1.75-3c0-1.11-.79-1.56-1.76-1a3.87,3.87,0,0,0-1.74,3c0,1.11.79,1.56,1.75,1" style="fill:#263238"></path></g><path d="M281.29,378.34a14.48,14.48,0,0,0-6.58,11.4c0,4.19,3,5.88,6.62,3.78a14.51,14.51,0,0,0,6.58-11.4C287.9,377.93,284.93,376.24,281.29,378.34Z" style="fill:#fff;opacity:0.1"></path><path d="M297.42,367.94,307,352l-88.3-51c-1.21-.79-2.92-.74-4.83.36a14.51,14.51,0,0,0-6.58,11.4c0,2.05.72,3.5,1.87,4.2h0l.06,0,0,0Z" style="fill:#455a64"></path><path d="M297.42,367.94,307,352l-88.3-51c-1.21-.79-2.92-.74-4.83.36a14.51,14.51,0,0,0-6.58,11.4c0,2.05.72,3.5,1.87,4.2h0l.06,0,0,0Z" style="fill:#fff;opacity:0.15"></path><g style="isolation:isolate"><path d="M302.27,352.43c3.64-2.1,6.61-.41,6.62,3.78a14.51,14.51,0,0,1-6.58,11.4c-3.65,2.1-6.61.41-6.62-3.78A14.48,14.48,0,0,1,302.27,352.43Zm0,13a10.38,10.38,0,0,0,4.72-8.17c0-3-2.13-4.22-4.75-2.71a10.44,10.44,0,0,0-4.72,8.17c0,3,2.14,4.22,4.75,2.71" style="fill:#455a64"></path><path d="M302.28,358c1-.56,1.75-.11,1.76,1a3.85,3.85,0,0,1-1.75,3c-1,.56-1.75.11-1.75-1A3.87,3.87,0,0,1,302.28,358Z" style="fill:#37474f"></path><path d="M302.27,354.58c2.62-1.51,4.74-.3,4.75,2.71a10.38,10.38,0,0,1-4.72,8.17c-2.61,1.51-4.74.3-4.75-2.71A10.44,10.44,0,0,1,302.27,354.58Zm0,7.45a3.85,3.85,0,0,0,1.75-3c0-1.11-.79-1.56-1.76-1a3.87,3.87,0,0,0-1.74,3c0,1.11.79,1.56,1.75,1" style="fill:#263238"></path></g><path d="M302.27,352.43a14.48,14.48,0,0,0-6.58,11.4c0,4.19,3,5.88,6.62,3.78a14.51,14.51,0,0,0,6.58-11.4C308.88,352,305.91,350.33,302.27,352.43Z" style="fill:#fff;opacity:0.1"></path><path d="M283.39,376.12,293,360.2l-88.3-51c-1.21-.79-2.92-.73-4.83.37a14.49,14.49,0,0,0-6.58,11.4c0,2,.72,3.49,1.87,4.19h0l.06,0h0Z" style="fill:#455a64"></path><path d="M283.39,376.12,293,360.2l-88.3-51c-1.21-.79-2.92-.73-4.83.37a14.49,14.49,0,0,0-6.58,11.4c0,2,.72,3.49,1.87,4.19h0l.06,0h0Z" style="fill:#fff;opacity:0.2"></path><g style="isolation:isolate"><path d="M288.25,360.62c3.64-2.11,6.61-.42,6.62,3.77a14.49,14.49,0,0,1-6.58,11.4c-3.65,2.11-6.61.41-6.62-3.77A14.47,14.47,0,0,1,288.25,360.62Zm0,13a10.37,10.37,0,0,0,4.72-8.17c0-3-2.13-4.21-4.75-2.71a10.44,10.44,0,0,0-4.72,8.18c0,3,2.14,4.21,4.75,2.7" style="fill:#455a64"></path><path d="M288.26,366.19c1-.55,1.75-.11,1.76,1a3.84,3.84,0,0,1-1.75,3c-1,.56-1.75.11-1.75-1A3.87,3.87,0,0,1,288.26,366.19Z" style="fill:#37474f"></path><path d="M288.25,362.76c2.62-1.5,4.74-.29,4.75,2.71a10.37,10.37,0,0,1-4.72,8.17c-2.61,1.51-4.74.3-4.75-2.7A10.44,10.44,0,0,1,288.25,362.76Zm0,7.45a3.84,3.84,0,0,0,1.75-3c0-1.11-.79-1.55-1.76-1a3.87,3.87,0,0,0-1.74,3c0,1.11.79,1.56,1.75,1" style="fill:#263238"></path></g><path d="M288.25,360.62a14.47,14.47,0,0,0-6.58,11.4c0,4.18,3,5.88,6.62,3.77a14.49,14.49,0,0,0,6.58-11.4C294.86,360.2,291.89,358.51,288.25,360.62Z" style="fill:#fff;opacity:0.1"></path></g><g id="freepik--Barrel--inject-59"><path d="M177,334.2c-13.92,8.08-36.55,8.08-50.55,0a24.35,24.35,0,0,1-7.93-6.91V388.6c0,4.57,3.29,9,9.24,12.42,6.38,3.68,14.9,5.71,24,5.71s17.58-2,23.92-5.71c5.86-3.4,9.09-7.78,9.08-12.31V327.42A24.33,24.33,0,0,1,177,334.2Z" style="fill:#455a64"></path><path d="M126.4,334.2c14,8.08,36.63,8.08,50.55,0a24.33,24.33,0,0,0,7.76-6.78c5.26-7.5,2.61-16.42-7.93-22.5-14-8.09-36.63-8.09-50.55,0-10.41,6.05-13,14.91-7.76,22.37A24.35,24.35,0,0,0,126.4,334.2Zm1.15-27c6.34-3.69,14.83-5.71,23.92-5.71s17.62,2,24,5.71c5.95,3.44,9.23,7.85,9.24,12.42s-3.22,8.91-9.08,12.32c-6.34,3.68-14.83,5.71-23.92,5.71s-17.62-2-24-5.72c-5.95-3.43-9.23-7.84-9.24-12.42S121.69,310.59,127.55,307.19Z" style="fill:#37474f"></path><path d="M127.71,331.92c6.38,3.69,14.9,5.72,24,5.72s17.58-2,23.92-5.71c5.86-3.41,9.09-7.78,9.08-12.32s-3.29-9-9.24-12.42c-6.38-3.68-14.9-5.71-24-5.71s-17.58,2-23.92,5.71c-5.86,3.4-9.09,7.78-9.08,12.31S121.76,328.49,127.71,331.92Z" style="fill:#455a64"></path><path d="M139.86,315.1a3.58,3.58,0,0,0-.45-.31,12,12,0,0,0-10.89,0,3.36,3.36,0,0,0-.43.31h-1.8v2.84a3.84,3.84,0,0,0,2.27,3.15,12,12,0,0,0,10.89,0,3.82,3.82,0,0,0,2.24-3.15V315.1Z" style="fill:#263238"></path><path d="M139.41,311.94c3,1.74,3,4.57,0,6.31a12,12,0,0,1-10.89,0c-3-1.74-3-4.57,0-6.31A12,12,0,0,1,139.41,311.94Z" style="fill:#37474f"></path><path d="M131.74,336.73V403a47.21,47.21,0,0,0,11,3.06V339.59A51.39,51.39,0,0,1,131.74,336.73Z" style="opacity:0.1"></path><path d="M177,334.2a37.25,37.25,0,0,1-3.34,1.69v66.19c.69-.34,1.37-.68,2-1.06s1.31-.8,1.92-1.22v-66Z" style="fill:#fff;opacity:0.05"></path><path d="M184.71,380.92v7.79c0,4.53-3.22,8.91-9.08,12.31-6.34,3.69-14.83,5.71-23.92,5.71s-17.62-2-24-5.71c-5.95-3.44-9.23-7.85-9.24-12.42v-7.81c-5.26,7.5-2.61,16.42,7.93,22.5,14,8.09,36.63,8.09,50.55,0C187.36,397.24,189.93,388.38,184.71,380.92Z" style="fill:#37474f"></path><path d="M184.71,344.4v7.79c0,4.54-3.22,8.91-9.08,12.32-6.34,3.68-14.83,5.71-23.92,5.71s-17.62-2-24-5.71c-5.95-3.44-9.23-7.85-9.24-12.43v-7.8c-5.26,7.49-2.61,16.42,7.93,22.5,14,8.08,36.63,8.08,50.55,0C187.36,360.73,189.93,351.87,184.71,344.4Z" style="fill:#37474f"></path><path d="M258.83,380.79c-13.91,8.09-36.55,8.09-50.55,0a24.35,24.35,0,0,1-7.93-6.91v61.31c0,4.57,3.29,9,9.24,12.42,6.38,3.69,14.9,5.71,24,5.71s17.59-2,23.92-5.7c5.86-3.41,9.09-7.79,9.08-12.32V374A24,24,0,0,1,258.83,380.79Z" style="fill:#455a64"></path><path d="M208.28,380.79c14,8.09,36.64,8.09,50.55,0a24,24,0,0,0,7.76-6.78c5.26-7.49,2.61-16.42-7.93-22.5-14-8.09-36.63-8.09-50.55,0-10.4,6.05-13,14.91-7.76,22.37A24.35,24.35,0,0,0,208.28,380.79Zm1.15-27c6.34-3.68,14.83-5.71,23.93-5.71s17.61,2,24,5.71c5.95,3.44,9.24,7.85,9.24,12.42s-3.22,8.91-9.08,12.32c-6.33,3.68-14.83,5.71-23.92,5.71s-17.62-2-24-5.71c-6-3.44-9.23-7.85-9.24-12.42S203.57,357.19,209.43,353.78Z" style="fill:#37474f"></path><path d="M209.59,378.52c6.38,3.68,14.9,5.71,24,5.71s17.59-2,23.92-5.71c5.86-3.41,9.09-7.78,9.08-12.32s-3.29-9-9.24-12.42c-6.38-3.68-14.9-5.71-24-5.71s-17.59,2-23.93,5.71c-5.86,3.41-9.09,7.78-9.08,12.32S203.64,375.08,209.59,378.52Z" style="fill:#455a64"></path><path d="M221.74,361.69c-.15-.1-.28-.22-.44-.31a12,12,0,0,0-10.89,0,4.91,4.91,0,0,0-.44.31h-1.8v2.84a3.87,3.87,0,0,0,2.27,3.16,12,12,0,0,0,10.89,0,3.81,3.81,0,0,0,2.24-3.16v-2.84Z" style="fill:#263238"></path><path d="M221.3,358.53c3,1.75,3,4.57,0,6.31a12,12,0,0,1-10.89,0c-3-1.74-3-4.56,0-6.31A12,12,0,0,1,221.3,358.53Z" style="fill:#37474f"></path><path d="M213.62,383.32v66.25a47.21,47.21,0,0,0,11,3.06V386.18A51.39,51.39,0,0,1,213.62,383.32Z" style="opacity:0.1"></path><path d="M258.83,380.79a35.81,35.81,0,0,1-3.33,1.69v66.2c.68-.34,1.37-.69,2-1.06s1.32-.81,1.92-1.22v-66Z" style="fill:#fff;opacity:0.05"></path><path d="M266.59,427.51v7.79c0,4.53-3.22,8.91-9.08,12.32-6.33,3.68-14.83,5.7-23.92,5.7s-17.62-2-24-5.71c-6-3.43-9.23-7.85-9.24-12.42v-7.8c-5.26,7.49-2.61,16.41,7.93,22.49,14,8.09,36.64,8.09,50.55,0C269.24,443.84,271.82,435,266.59,427.51Z" style="fill:#37474f"></path><path d="M266.59,391v7.79c0,4.53-3.22,8.91-9.08,12.31-6.33,3.68-14.83,5.71-23.92,5.71s-17.62-2-24-5.71c-6-3.44-9.23-7.85-9.24-12.42v-7.81c-5.26,7.49-2.61,16.42,7.93,22.5,14,8.09,36.64,8.09,50.55,0C269.24,407.32,271.82,398.46,266.59,391Z" style="fill:#37474f"></path></g><g id="freepik--Mouses--inject-59"><path d="M246.37,374.77a1.48,1.48,0,0,1,.62.54.5.5,0,0,1-.21.7.73.73,0,0,1-.55-.1l-3.39-1.64a4.13,4.13,0,0,1-.42-.22,1,1,0,0,1-.37-.32.47.47,0,0,1,0-.47c.13-.26.5-.26.78-.21A12.19,12.19,0,0,1,246.37,374.77Z" style="fill:#92E3A9"></path><path d="M246.37,374.77a1.48,1.48,0,0,1,.62.54.5.5,0,0,1-.21.7.73.73,0,0,1-.55-.1l-3.39-1.64a4.13,4.13,0,0,1-.42-.22,1,1,0,0,1-.37-.32.47.47,0,0,1,0-.47c.13-.26.5-.26.78-.21A12.19,12.19,0,0,1,246.37,374.77Z" style="opacity:0.4"></path><path d="M242.36,376.87a1.48,1.48,0,0,1,.62.54.51.51,0,0,1-.2.71.73.73,0,0,1-.55-.11l-3.4-1.64-.42-.22a1,1,0,0,1-.37-.32.47.47,0,0,1,0-.47c.14-.26.5-.26.79-.2A11.75,11.75,0,0,1,242.36,376.87Z" style="fill:#92E3A9"></path><path d="M242.36,376.87a1.48,1.48,0,0,1,.62.54.51.51,0,0,1-.2.71.73.73,0,0,1-.55-.11l-3.4-1.64-.42-.22a1,1,0,0,1-.37-.32.47.47,0,0,1,0-.47c.14-.26.5-.26.79-.2A11.75,11.75,0,0,1,242.36,376.87Z" style="opacity:0.30000000000000004"></path><path d="M245.4,374.52a1.23,1.23,0,0,0,1.09-.39,1.58,1.58,0,0,0,.34-1.22,3.61,3.61,0,0,0-.43-1.23c-.16-.31-.42-.65-.76-.61a.83.83,0,0,0-.55.49C244.62,372.4,243.92,374.27,245.4,374.52Z" style="fill:#92E3A9"></path><path d="M245.4,374.52a1.23,1.23,0,0,0,1.09-.39,1.58,1.58,0,0,0,.34-1.22,3.61,3.61,0,0,0-.43-1.23c-.16-.31-.42-.65-.76-.61a.83.83,0,0,0-.55.49C244.62,372.4,243.92,374.27,245.4,374.52Z" style="opacity:0.4"></path><path d="M248,369.35a4.87,4.87,0,0,1-2.93-4.05,3.27,3.27,0,0,0-1.75,2.59,6.09,6.09,0,0,0,4.26,1.89,3.29,3.29,0,0,0,.42.63.44.44,0,0,0,.28.17.34.34,0,0,0,.29-.27C248.71,370,248.36,369.49,248,369.35Z" style="fill:#92E3A9"></path><path d="M248,369.35a4.87,4.87,0,0,1-2.93-4.05,3.27,3.27,0,0,0-1.75,2.59,6.09,6.09,0,0,0,4.26,1.89,3.29,3.29,0,0,0,.42.63.44.44,0,0,0,.28.17.34.34,0,0,0,.29-.27C248.71,370,248.36,369.49,248,369.35Z" style="opacity:0.4"></path><path d="M236.53,371.62a3.24,3.24,0,0,1-2.07.41,3,3,0,0,1-1.2-.35,3.83,3.83,0,0,1-.42-.28,3.35,3.35,0,0,1-.88-1.1,3.23,3.23,0,0,1-.35-1.17,2.46,2.46,0,0,1,0-.26,4.27,4.27,0,0,1,.17-1.16,6.75,6.75,0,0,1,.61-1.5c.3-.55.64-1.1.95-1.67.16-.3.32-.6.46-.92a7.28,7.28,0,0,0,.37-1.23,7.19,7.19,0,0,0,.13-2.17,5.74,5.74,0,0,0-.54-1.88,4.33,4.33,0,0,0-.72-1.08,7.07,7.07,0,0,1,.44,1.19,7.18,7.18,0,0,1,.27,1.73,6.87,6.87,0,0,1-.2,2,4.6,4.6,0,0,1-.2.66,9.23,9.23,0,0,1-.65,1.39c-.29.53-.59,1-.89,1.56a11.27,11.27,0,0,0-.8,1.64,5,5,0,0,0-.36,1.67s0,.05,0,.08a4.24,4.24,0,0,0,1.47,3.25,2.94,2.94,0,0,0,.6.45,4,4,0,0,0,1.54.53,4.3,4.3,0,0,0,2.7-.5C236.81,372.64,236.66,371.92,236.53,371.62Z" style="fill:#92E3A9"></path><g style="opacity:0.2"><path d="M233.78,363.62a7.28,7.28,0,0,0,.37-1.23,2.21,2.21,0,0,1-.62-.18,4.6,4.6,0,0,1-.2.66,9.23,9.23,0,0,1-.65,1.39,1.74,1.74,0,0,0,.64.28C233.48,364.24,233.64,363.94,233.78,363.62Z"></path><path d="M232.37,366.21a.85.85,0,0,1-.22-.09,1.31,1.31,0,0,1-.36-.3,11.27,11.27,0,0,0-.8,1.64,1.47,1.47,0,0,0,.77.25A6.75,6.75,0,0,1,232.37,366.21Z"></path><path d="M233,357.26a7.07,7.07,0,0,1,.44,1.19l.28-.11A4.33,4.33,0,0,0,233,357.26Z"></path><path d="M234.28,360.22a5.74,5.74,0,0,0-.54-1.88l-.28.11a7.18,7.18,0,0,1,.27,1.73,2.61,2.61,0,0,0,.48.05Z"></path><path d="M234.52,373a1.25,1.25,0,0,0-.06-1,3,3,0,0,1-1.2-.35,3.83,3.83,0,0,1-.42-.28.94.94,0,0,1-.48,1,.86.86,0,0,1-.27.09,2.94,2.94,0,0,0,.6.45,4,4,0,0,0,1.54.53A1.24,1.24,0,0,0,234.52,373Z"></path><path d="M231.4,370.7a1.24,1.24,0,0,0,.56-.4,3.23,3.23,0,0,1-.35-1.17,1.81,1.81,0,0,1-1,0s0,.05,0,.08a4.22,4.22,0,0,0,.27,1.53A1.45,1.45,0,0,0,231.4,370.7Z"></path></g><path d="M247.44,364.44c-1.08,1.06-1.24,2.74-1.21,4.26a9.4,9.4,0,0,1-.5,4.49,4.51,4.51,0,0,1-3.06,2.28,1.71,1.71,0,0,1-1.63,1,3.69,3.69,0,0,1-1.91-.64,7.17,7.17,0,0,1-3-3.24,4.71,4.71,0,0,1,.21-4.32,6.82,6.82,0,0,1,2.57-2.15,14.58,14.58,0,0,0,2.85-1.83,3.53,3.53,0,0,0,1.26-3A17.69,17.69,0,0,0,247.44,364.44Z" style="fill:#92E3A9"></path><path d="M247.44,364.44c-1.08,1.06-1.24,2.74-1.21,4.26a9.4,9.4,0,0,1-.5,4.49,4.51,4.51,0,0,1-3.06,2.28,1.71,1.71,0,0,1-1.63,1,3.69,3.69,0,0,1-1.91-.64,7.17,7.17,0,0,1-3-3.24,4.71,4.71,0,0,1,.21-4.32,6.82,6.82,0,0,1,2.57-2.15,14.58,14.58,0,0,0,2.85-1.83,3.53,3.53,0,0,0,1.26-3A17.69,17.69,0,0,0,247.44,364.44Z" style="opacity:0.30000000000000004"></path><path d="M245.39,366.65A2.64,2.64,0,0,0,244,368c-.3.59-.47,1.24-.72,1.85a3.26,3.26,0,0,1-1.23,1.53,3.88,3.88,0,0,1,.59,4.07,4.51,4.51,0,0,0,3.06-2.28,9.4,9.4,0,0,0,.5-4.49,11.09,11.09,0,0,1,.14-2.07A1.64,1.64,0,0,0,245.39,366.65Z" style="fill:#92E3A9"></path><path d="M246.77,365.39a3.48,3.48,0,0,1,.67-.95,15.11,15.11,0,0,1-3.87-2.64,4.71,4.71,0,0,0,1.34,2.52A4.63,4.63,0,0,0,246.77,365.39Z" style="opacity:0.2"></path><path d="M252.44,354.6a4.09,4.09,0,0,0-1.08-1,2.87,2.87,0,0,0-1.12-.52,1.62,1.62,0,0,0-1.27.28,3.41,3.41,0,0,0-1,1.56,7.85,7.85,0,0,0-.47,3,8.25,8.25,0,0,0,.08.84,3.43,3.43,0,0,0-.7-.18,6.16,6.16,0,0,0-1.44,0c.08-.32.14-.62.17-.82a6.47,6.47,0,0,0-.26-3.09,2.74,2.74,0,0,0-1.1-1.53,2.21,2.21,0,0,0-1.56-.16,5.23,5.23,0,0,0-1.46.67,6.37,6.37,0,0,0-1.46,1.17,3,3,0,0,0-.8,1.66,3,3,0,0,0,.88,2.32,4.94,4.94,0,0,0,2.22,1.21c.37.09.74.17,1.12.23a2.5,2.5,0,0,0-.18.48,2.74,2.74,0,0,0,.51,2.31,4.48,4.48,0,0,0,1.93,1.26,13.75,13.75,0,0,0,4.09.94,2.41,2.41,0,0,0,.71,0,1.23,1.23,0,0,1,.09-1.66c-.11-.1-.23-.21-.33-.32-.68-.82-.51-2.06-.91-3a7.74,7.74,0,0,0,1.06-.35,4.8,4.8,0,0,0,1.89-1.35,3.72,3.72,0,0,0,.91-2.3A2.74,2.74,0,0,0,252.44,354.6Z" style="fill:#92E3A9"></path><path d="M252.44,354.6a4.09,4.09,0,0,0-1.08-1,2.87,2.87,0,0,0-1.12-.52,1.62,1.62,0,0,0-1.27.28,3.41,3.41,0,0,0-1,1.56,7.85,7.85,0,0,0-.47,3,8.25,8.25,0,0,0,.08.84,3.43,3.43,0,0,0-.7-.18,6.16,6.16,0,0,0-1.44,0c.08-.32.14-.62.17-.82a6.47,6.47,0,0,0-.26-3.09,2.74,2.74,0,0,0-1.1-1.53,2.21,2.21,0,0,0-1.56-.16,5.23,5.23,0,0,0-1.46.67,6.37,6.37,0,0,0-1.46,1.17,3,3,0,0,0-.8,1.66,3,3,0,0,0,.88,2.32,4.94,4.94,0,0,0,2.22,1.21c.37.09.74.17,1.12.23a2.5,2.5,0,0,0-.18.48,2.74,2.74,0,0,0,.51,2.31,4.48,4.48,0,0,0,1.93,1.26,13.75,13.75,0,0,0,4.09.94,2.41,2.41,0,0,0,.71,0,1.23,1.23,0,0,1,.09-1.66c-.11-.1-.23-.21-.33-.32-.68-.82-.51-2.06-.91-3a7.74,7.74,0,0,0,1.06-.35,4.8,4.8,0,0,0,1.89-1.35,3.72,3.72,0,0,0,.91-2.3A2.74,2.74,0,0,0,252.44,354.6Z" style="opacity:0.30000000000000004"></path><path d="M242.59,357.06a7.54,7.54,0,0,1,1.57,2l.19-.16a1.63,1.63,0,0,1,.38-.17c0-.17.08-.36.11-.57a5.44,5.44,0,0,0-.22-2.6,1.74,1.74,0,0,0-.64-1,1.17,1.17,0,0,0-.82-.05,1.88,1.88,0,0,0-.42.14,5.16,5.16,0,0,0-.74.4,5.91,5.91,0,0,0-1.24,1,2.13,2.13,0,0,0-.54,1.11,1.91,1.91,0,0,0,.59,1.49,3.94,3.94,0,0,0,1.76.94c.3.08.59.13.88.18a3.65,3.65,0,0,1,.31-.36A13.36,13.36,0,0,0,242.59,357.06Z" style="opacity:0.4"></path><path d="M250,357a18,18,0,0,0-1.23,2.54,2.09,2.09,0,0,1,.14.17,8.36,8.36,0,0,0,.89-.29,3.89,3.89,0,0,0,1.5-1.05,2.51,2.51,0,0,0,.6-1.49,1.77,1.77,0,0,0-.35-1,3.5,3.5,0,0,0-.91-.83,3.94,3.94,0,0,0-.56-.32,1.28,1.28,0,0,0-.33-.11.89.89,0,0,0-.67.13,2.21,2.21,0,0,0-.59,1,6.44,6.44,0,0,0-.4,2.52,7.09,7.09,0,0,0,.07.76,2.35,2.35,0,0,1,.32.23A9.07,9.07,0,0,1,250,357Z" style="opacity:0.4"></path><path d="M251.23,363.12a1.25,1.25,0,0,0-1,2,1.25,1.25,0,0,0,1,.51,1.28,1.28,0,0,0,0-2.55Z" style="fill:#263238"></path><path d="M246.57,361.1a.54.54,0,1,0,.53.54A.54.54,0,0,0,246.57,361.1Z" style="fill:#263238"></path><path d="M246.65,370.39a4.9,4.9,0,0,1-2.93-4.05,3.22,3.22,0,0,0-1.74,2.58,6,6,0,0,0,4.25,1.89,2.76,2.76,0,0,0,.43.64.4.4,0,0,0,.28.17c.14,0,.24-.14.28-.27C247.33,371,247,370.53,246.65,370.39Z" style="fill:#92E3A9"></path><path d="M246.65,370.39a4.9,4.9,0,0,1-2.93-4.05,3.22,3.22,0,0,0-1.74,2.58,6,6,0,0,0,4.25,1.89,2.76,2.76,0,0,0,.43.64.4.4,0,0,0,.28.17c.14,0,.24-.14.28-.27C247.33,371,247,370.53,246.65,370.39Z" style="opacity:0.30000000000000004"></path><path d="M300.29,450c-.2.4-.37.94-.05,1.25a.73.73,0,0,0,.79.07,2.07,2.07,0,0,0,.64-.54l2.35-2.6a3.44,3.44,0,0,0,.69-1,1.14,1.14,0,0,0-.09-1.13c-.57-.72-2-.36-2.47.28A21.5,21.5,0,0,0,300.29,450Z" style="fill:#92E3A9"></path><path d="M300.29,450c-.2.4-.37.94-.05,1.25a.73.73,0,0,0,.79.07,2.07,2.07,0,0,0,.64-.54l2.35-2.6a3.44,3.44,0,0,0,.69-1,1.14,1.14,0,0,0-.09-1.13c-.57-.72-2-.36-2.47.28A21.5,21.5,0,0,0,300.29,450Z" style="opacity:0.2"></path><path d="M290.68,450.76A13.89,13.89,0,0,1,289.1,455a2.72,2.72,0,0,1-.56.75,1.14,1.14,0,0,1-.87.3.71.71,0,0,1-.6-.63.85.85,0,0,1,.59-.75,11,11,0,0,0,.67-3.84C289.12,450.77,289.89,450.8,290.68,450.76Z" style="fill:#92E3A9"></path><path d="M290.68,450.76A13.89,13.89,0,0,1,289.1,455a2.72,2.72,0,0,1-.56.75,1.14,1.14,0,0,1-.87.3.71.71,0,0,1-.6-.63.85.85,0,0,1,.59-.75,11,11,0,0,0,.67-3.84C289.12,450.77,289.89,450.8,290.68,450.76Z" style="opacity:0.30000000000000004"></path><path d="M309.81,437.31a5.05,5.05,0,0,0-.36-1.68,12.39,12.39,0,0,0-.8-1.64c-.3-.51-.61-1-.89-1.55a9.82,9.82,0,0,1-.65-1.4,4.88,4.88,0,0,1-.2-.65,7,7,0,0,1-.2-2,7.25,7.25,0,0,1,.27-1.73,6.66,6.66,0,0,1,.44-1.18,4.33,4.33,0,0,0-.72,1.08,5.45,5.45,0,0,0-.54,1.87,6.89,6.89,0,0,0,.13,2.17,7.28,7.28,0,0,0,.37,1.23c.14.32.3.63.46.92.31.58.65,1.12.95,1.67a7.16,7.16,0,0,1,.61,1.5,4.39,4.39,0,0,1,.17,1.16c0,.09,0,.18,0,.26a3.18,3.18,0,0,1-.35,1.17,3.25,3.25,0,0,1-.88,1.1,3.83,3.83,0,0,1-.42.28,3.15,3.15,0,0,1-1.2.36,3.25,3.25,0,0,1-2.07-.42c-.13.3-.28,1-.4,1.32a4.35,4.35,0,0,0,4.24,0,3.91,3.91,0,0,0,.6-.45,4.33,4.33,0,0,0,1.2-1.73,4.22,4.22,0,0,0,.27-1.53S309.81,437.33,309.81,437.31Z" style="fill:#92E3A9"></path><g style="opacity:0.2"><path d="M306.66,431.79a7.28,7.28,0,0,1-.37-1.23,2.29,2.29,0,0,0,.62-.17,4.88,4.88,0,0,0,.2.65,9.82,9.82,0,0,0,.65,1.4,1.72,1.72,0,0,1-.64.27C307,432.42,306.8,432.11,306.66,431.79Z"></path><path d="M308.07,434.38a.85.85,0,0,0,.22-.09,1.48,1.48,0,0,0,.36-.3,12.39,12.39,0,0,1,.8,1.64,1.39,1.39,0,0,1-.77.25A7.16,7.16,0,0,0,308.07,434.38Z"></path><path d="M306.16,428.39a5.45,5.45,0,0,1,.54-1.87l.28.1a7.25,7.25,0,0,0-.27,1.73,1.57,1.57,0,0,1-.48,0Z"></path><path d="M305.92,441.15a1.23,1.23,0,0,1,.06-.94,3.15,3.15,0,0,0,1.2-.36,3,3,0,0,0,.41-.28,1,1,0,0,0,.48,1,1.57,1.57,0,0,0,.28.1,3.91,3.91,0,0,1-.6.45,4.2,4.2,0,0,1-1.54.52A1.16,1.16,0,0,1,305.92,441.15Z"></path><path d="M309,438.87a1.24,1.24,0,0,1-.56-.4,3.18,3.18,0,0,0,.35-1.17,1.92,1.92,0,0,0,1,0s0,.05,0,.07a4.22,4.22,0,0,1-.27,1.53A1.25,1.25,0,0,1,309,438.87Z"></path></g><path d="M300.12,447.69a1.86,1.86,0,0,0,2,.21,4.56,4.56,0,0,0,1.61-1.42,6.26,6.26,0,0,0,1.76-4.56,4.41,4.41,0,0,0-2.19-3.12,6.9,6.9,0,0,0-3.79-.82,9.58,9.58,0,0,0-7.11,3.8,37,37,0,0,0-2,3.44,7.44,7.44,0,0,1-2.73,2.86c.17,1.1.36,2.25.53,3.35a6.21,6.21,0,0,0,4.68.06,5.1,5.1,0,0,1-.45,3.31c-.33,0-.61.4-.58.73a.8.8,0,0,0,.65.66,1.23,1.23,0,0,0,.92-.25,2.86,2.86,0,0,0,.65-.74,7.57,7.57,0,0,0,1.19-4.21A31.57,31.57,0,0,0,300.12,447.69Z" style="fill:#92E3A9"></path><path d="M300.12,447.69a1.86,1.86,0,0,0,2,.21,4.56,4.56,0,0,0,1.61-1.42,6.26,6.26,0,0,0,1.76-4.56,4.41,4.41,0,0,0-2.19-3.12,6.9,6.9,0,0,0-3.79-.82,9.58,9.58,0,0,0-7.11,3.8,37,37,0,0,0-2,3.44,7.44,7.44,0,0,1-2.73,2.86c.17,1.1.36,2.25.53,3.35a6.21,6.21,0,0,0,4.68.06,5.1,5.1,0,0,1-.45,3.31c-.33,0-.61.4-.58.73a.8.8,0,0,0,.65.66,1.23,1.23,0,0,0,.92-.25,2.86,2.86,0,0,0,.65-.74,7.57,7.57,0,0,0,1.19-4.21A31.57,31.57,0,0,0,300.12,447.69Z" style="opacity:0.2"></path><path d="M292,451.21a3.48,3.48,0,0,0,.23-2.68,5.59,5.59,0,0,0,1.64-.86,2.86,2.86,0,0,0,1-1.51,3,3,0,0,0-1.17-2.9,4.7,4.7,0,0,0-1.72-.81c-.57.9-1,1.86-1.58,2.77a7.44,7.44,0,0,1-2.73,2.86c.17,1.1.36,2.25.53,3.35a6.29,6.29,0,0,0,3.31.42A3.57,3.57,0,0,0,292,451.21Z" style="opacity:0.2"></path><path d="M294.2,442.55a6.42,6.42,0,0,0-1.47-1.17,4.88,4.88,0,0,0-1.45-.66,2.16,2.16,0,0,0-1.56.16,2.67,2.67,0,0,0-1.1,1.52,6.37,6.37,0,0,0-.27,3.09c0,.2.09.5.17.83a6.18,6.18,0,0,0-1.44,0,3.48,3.48,0,0,0-.69.17c0-.32.06-.63.07-.83a7.66,7.66,0,0,0-.47-3,3.39,3.39,0,0,0-1-1.56,1.69,1.69,0,0,0-1.28-.29,3.14,3.14,0,0,0-1.11.52,4.28,4.28,0,0,0-1.08,1,2.65,2.65,0,0,0-.5,1.54,3.73,3.73,0,0,0,.9,2.31,5.09,5.09,0,0,0,1.89,1.35,8.16,8.16,0,0,0,1.06.34c-.39,1-.22,2.22-.91,3a3.43,3.43,0,0,1-.33.33,1.24,1.24,0,0,0-.9-.38,1.28,1.28,0,1,0,1,2,2.75,2.75,0,0,0,.7,0,14.13,14.13,0,0,0,4.1-.94,4.57,4.57,0,0,0,1.92-1.26,2.72,2.72,0,0,0,.51-2.32,2.15,2.15,0,0,0-.18-.48,10.09,10.09,0,0,0,1.12-.23,4.79,4.79,0,0,0,2.22-1.21,2.89,2.89,0,0,0,.88-2.31A3.06,3.06,0,0,0,294.2,442.55Z" style="fill:#92E3A9"></path><path d="M294.2,442.55a6.42,6.42,0,0,0-1.47-1.17,4.88,4.88,0,0,0-1.45-.66,2.16,2.16,0,0,0-1.56.16,2.67,2.67,0,0,0-1.1,1.52,6.37,6.37,0,0,0-.27,3.09c0,.2.09.5.17.83a6.18,6.18,0,0,0-1.44,0,3.48,3.48,0,0,0-.69.17c0-.32.06-.63.07-.83a7.66,7.66,0,0,0-.47-3,3.39,3.39,0,0,0-1-1.56,1.69,1.69,0,0,0-1.28-.29,3.14,3.14,0,0,0-1.11.52,4.28,4.28,0,0,0-1.08,1,2.65,2.65,0,0,0-.5,1.54,3.73,3.73,0,0,0,.9,2.31,5.09,5.09,0,0,0,1.89,1.35,8.16,8.16,0,0,0,1.06.34c-.39,1-.22,2.22-.91,3a3.43,3.43,0,0,1-.33.33,1.24,1.24,0,0,0-.9-.38,1.28,1.28,0,1,0,1,2,2.75,2.75,0,0,0,.7,0,14.13,14.13,0,0,0,4.1-.94,4.57,4.57,0,0,0,1.92-1.26,2.72,2.72,0,0,0,.51-2.32,2.15,2.15,0,0,0-.18-.48,10.09,10.09,0,0,0,1.12-.23,4.79,4.79,0,0,0,2.22-1.21,2.89,2.89,0,0,0,.88-2.31A3.06,3.06,0,0,0,294.2,442.55Z" style="opacity:0.2"></path><path d="M291.36,444.83a7.34,7.34,0,0,0-1.57,2l-.19-.15a1.66,1.66,0,0,0-.38-.18c0-.17-.08-.35-.11-.56a5.3,5.3,0,0,1,.22-2.6,1.75,1.75,0,0,1,.63-1,1.14,1.14,0,0,1,.83-.06,2.3,2.3,0,0,1,.42.14,6.41,6.41,0,0,1,.74.4,5.69,5.69,0,0,1,1.23,1,2,2,0,0,1,.55,1.1,1.92,1.92,0,0,1-.6,1.49,3.76,3.76,0,0,1-1.75.94,7.24,7.24,0,0,1-.88.18c-.1-.13-.21-.24-.32-.36A13.41,13.41,0,0,1,291.36,444.83Z" style="opacity:0.4"></path><path d="M284,444.81a17.86,17.86,0,0,1,1.22,2.53c0,.06-.1.11-.14.18a8.21,8.21,0,0,1-.88-.29,3.83,3.83,0,0,1-1.5-1.06,2.46,2.46,0,0,1-.61-1.48,1.87,1.87,0,0,1,.35-1,3.75,3.75,0,0,1,.92-.84,3.08,3.08,0,0,1,.56-.32,1.19,1.19,0,0,1,.32-.1.88.88,0,0,1,.67.12,2.24,2.24,0,0,1,.6,1,6.62,6.62,0,0,1,.39,2.52,7.12,7.12,0,0,1-.06.76,2.62,2.62,0,0,0-.32.23A9.38,9.38,0,0,0,284,444.81Z" style="opacity:0.4"></path><path d="M282.72,450.9a1.28,1.28,0,0,1,1.27,1.27,1.32,1.32,0,0,1-1.27,1.28,1.28,1.28,0,1,1,0-2.55Z" style="fill:#263238"></path><circle cx="287.38" cy="449.41" r="0.53" style="fill:#263238"></circle></g><g id="freepik--Character--inject-59"><path d="M360.86,327a8.73,8.73,0,0,0,6.54,2.41,19.72,19.72,0,0,0,6.92-1.75c2.21-.91,5-3.45,7.38-3.4a60.51,60.51,0,0,0,7-.48,36.52,36.52,0,0,0-1-9.48L376.53,314c-3,4.12-8.87,7.56-13.31,8.85a3.89,3.89,0,0,0-2.75,2.94v.07A4.73,4.73,0,0,0,360.86,327Z" style="fill:#455a64"></path><path d="M381.7,324.27c-2.39,0-5.17,2.49-7.38,3.4a19.72,19.72,0,0,1-6.92,1.75,8.73,8.73,0,0,1-6.54-2.41,4.73,4.73,0,0,1-.39-1.13v-.07a3.52,3.52,0,0,0,0,1.48,4.71,4.71,0,0,0,.39,1.14,8.68,8.68,0,0,0,6.54,2.4,19.71,19.71,0,0,0,6.92-1.74c2.21-.91,5-3.46,7.38-3.41a51.57,51.57,0,0,0,6.89-.4c.05-.49.08-1,.11-1.49A60.51,60.51,0,0,1,381.7,324.27Z" style="fill:#37474f"></path><path d="M413.22,328.06a16.79,16.79,0,0,1-.33,3.39,7.9,7.9,0,0,1-3.1,4.94,9.93,9.93,0,0,1-4.92,1.3,10.67,10.67,0,0,1-4.5-.46,5.09,5.09,0,0,1-2.63-2.15.13.13,0,0,0,0,.06,4.68,4.68,0,0,0,3,3.15,10.83,10.83,0,0,0,4.5.47,10.08,10.08,0,0,0,4.92-1.31,7.88,7.88,0,0,0,3.09-4.94,16,16,0,0,0,.34-3.39,5.73,5.73,0,0,1,1.82-4.14c.28-.26.54-.53.79-.81a2,2,0,0,0,.48-1.48c0-.21,0-.42-.06-.62-.41.48-1.38,1.62-1.62,1.85A5.71,5.71,0,0,0,413.22,328.06Z" style="fill:#37474f"></path><path d="M404.68,316.26a12.39,12.39,0,0,1-.87,6.87,26.26,26.26,0,0,1-3.63,6,17.57,17.57,0,0,0-1.91,2.78,5,5,0,0,0-.53,3.2,5.09,5.09,0,0,0,2.63,2.15,10.67,10.67,0,0,0,4.5.46,9.93,9.93,0,0,0,4.92-1.3,7.9,7.9,0,0,0,3.1-4.94,16.79,16.79,0,0,0,.33-3.39,5.71,5.71,0,0,1,1.82-4.14c.24-.23,1.21-1.37,1.62-1.85a12.63,12.63,0,0,0-1.67-4.79Z" style="fill:#455a64"></path><path d="M371.7,206l.93,63.69,3,44.58c7.61,4.81,13.12.87,13.12.87,2.89-21.11,3.28-34.1,1.71-42.89l1.44-34.37,4.33,35.68,7.28,43.74c7.8,5.06,13.31,0,13.31,0,0-16.19,1.44-34.29-3-46a268.5,268.5,0,0,0-2.09-64.67Z" style="fill:#263238"></path><path d="M390.31,224.73l1.59,13.12-.68,16.1-2.93-26.46c-6.79-2.66-7.67-6.4-7.67-6.4A20.86,20.86,0,0,0,390.31,224.73Z" style="opacity:0.2"></path><path d="M370.56,133.55a2.15,2.15,0,0,0-2.12-.23,2.08,2.08,0,0,0-.91,2,6.62,6.62,0,0,0,3,5.2,1.83,1.83,0,0,0,3-1.72A6.61,6.61,0,0,0,370.56,133.55Z" style="fill:#455a64"></path><path d="M375,138a6.62,6.62,0,0,0-3-5.2,2.2,2.2,0,0,0-2-.27h0l-.14.08-1.34.75h0a2.15,2.15,0,0,1,2.12.23,6.61,6.61,0,0,1,3,5.2,2.11,2.11,0,0,1-.87,1.93h0l1.35-.77.08,0h0A2.18,2.18,0,0,0,375,138Z" style="fill:#37474f"></path><path d="M373.17,133.73l-1.4.81a7.17,7.17,0,0,1,1,1.38l1.39-.86A7.08,7.08,0,0,0,373.17,133.73Z" style="fill:#fff;opacity:0.2"></path><path d="M375,138l-1.42.88a2.09,2.09,0,0,1-.87,1.83h0l1.35-.77.08,0h0A2.14,2.14,0,0,0,375,138Z" style="opacity:0.2"></path><path d="M373.2,138.84a6.26,6.26,0,0,0-2.84-4.92,2.09,2.09,0,0,0-1.93-.25h0l-10.8,6.17-1.27.71h0a2,2,0,0,1,2,.22,6.24,6.24,0,0,1,2.84,4.92,2,2,0,0,1-.82,1.82h0l1.27-.72,10.75-6.14h0A2,2,0,0,0,373.2,138.84Z" style="fill:#e0e0e0"></path><path d="M371.51,134.87l-12,6.9a7,7,0,0,1,1.11,1.71l12-6.91A6.81,6.81,0,0,0,371.51,134.87Z" style="fill:#fff;opacity:0.5"></path><path d="M373.18,139.17l-12,6.94a1.8,1.8,0,0,1-.79,1.41h0l1.27-.72,10.75-6.14h0A1.87,1.87,0,0,0,373.18,139.17Z" style="opacity:0.2"></path><path d="M362.22,138.59h0a2.67,2.67,0,0,0-2.43,0h-.5v.69h0a.85.85,0,0,0,.51.7,2.67,2.67,0,0,0,2.43,0,.86.86,0,0,0,.5-.7h0v-.69Z" style="fill:#92E3A9"></path><path d="M362.22,138.59h0a2.67,2.67,0,0,0-2.43,0h-.5v.69h0a.85.85,0,0,0,.51.7,2.67,2.67,0,0,0,2.43,0,.86.86,0,0,0,.5-.7h0v-.69Z" style="opacity:0.30000000000000004"></path><path d="M362.2,137.89a.74.74,0,0,1,0,1.4,2.67,2.67,0,0,1-2.43,0c-.67-.39-.68-1,0-1.4A2.67,2.67,0,0,1,362.2,137.89Z" style="fill:#92E3A9"></path><path d="M357.22,141.21a2.13,2.13,0,0,0-2.11-.23,2.08,2.08,0,0,0-.91,2,6.62,6.62,0,0,0,3,5.2,1.83,1.83,0,0,0,3-1.72A6.62,6.62,0,0,0,357.22,141.21Z" style="fill:#455a64"></path><path d="M361.64,145.61a6.59,6.59,0,0,0-3-5.2,2.2,2.2,0,0,0-2-.27h0l-.14.07-1.34.76h0a2.13,2.13,0,0,1,2.11.23,6.62,6.62,0,0,1,3,5.2,2.11,2.11,0,0,1-.87,1.93h0l1.35-.77.08,0h0A2.15,2.15,0,0,0,361.64,145.61Z" style="fill:#37474f"></path><path d="M359.84,141.39l-1.41.81a6.81,6.81,0,0,1,1,1.38l1.39-.86A7.21,7.21,0,0,0,359.84,141.39Z" style="fill:#fff;opacity:0.2"></path><path d="M361.64,145.63l-1.42.88a2.06,2.06,0,0,1-.86,1.83h0l1.35-.77.08,0h0A2.11,2.11,0,0,0,361.64,145.63Z" style="opacity:0.2"></path><path d="M359.65,147.63h0a2.42,2.42,0,0,0,.28-1.22,6.29,6.29,0,0,0-2.85-4.95,2.54,2.54,0,0,0-1.21-.37l-5.41.11,4.23,4.12,2.18,6.39,2.74-4,0,0Z" style="fill:#e0e0e0"></path><path d="M359.65,147.63h0a2.42,2.42,0,0,0,.28-1.22,6.29,6.29,0,0,0-2.85-4.95,2.54,2.54,0,0,0-1.21-.37l-5.41.11,4.23,4.12,2.18,6.39,2.74-4,0,0Z" style="fill:#e0e0e0"></path><path d="M358,142.18l-5.47,1,2.15,2.09.27.78,4.11-2.55A6.86,6.86,0,0,0,358,142.18Z" style="fill:#fff;opacity:0.5"></path><path d="M359.93,146.61l-3.41,4.08.35,1,2.74-4,0,0h0A2.32,2.32,0,0,0,359.93,146.61Z" style="opacity:0.2"></path><path d="M350.1,143.58a3.67,3.67,0,0,0-1.8-.56,1.81,1.81,0,0,0-.87.21,2.66,2.66,0,0,0-1.07,2.48,9.82,9.82,0,0,0,4.45,7.71,3.72,3.72,0,0,0,1.8.57,1.73,1.73,0,0,0,.92-.24,2.71,2.71,0,0,0,1-2.46A9.81,9.81,0,0,0,350.1,143.58Z" style="fill:#fff"></path><path d="M350.1,143.58a3.67,3.67,0,0,0-1.8-.56,1.81,1.81,0,0,0-.87.21,2.66,2.66,0,0,0-1.07,2.48,9.82,9.82,0,0,0,4.45,7.71,3.72,3.72,0,0,0,1.8.57,1.73,1.73,0,0,0,.92-.24,2.71,2.71,0,0,0,1-2.46A9.81,9.81,0,0,0,350.1,143.58Z" style="fill:#92E3A9"></path><path d="M350.1,143.58a3.67,3.67,0,0,0-1.8-.56,1.81,1.81,0,0,0-.87.21,2.66,2.66,0,0,0-1.07,2.48,9.82,9.82,0,0,0,4.45,7.71,3.72,3.72,0,0,0,1.8.57,1.73,1.73,0,0,0,.92-.24,2.71,2.71,0,0,0,1-2.46A9.81,9.81,0,0,0,350.1,143.58Z" style="fill:#fff;opacity:0.5"></path><path d="M355.07,147.77a3.54,3.54,0,0,0-1.61-2.8,1.2,1.2,0,0,0-1.1-.15h0l-.07,0-3,1.69h0a1.15,1.15,0,0,1,1.14.12,3.54,3.54,0,0,1,1.62,2.8,1.15,1.15,0,0,1-.46,1h0l3-1.69.05,0h0A1.15,1.15,0,0,0,355.07,147.77Z" style="fill:#e0e0e0"></path><path d="M352,149.48a3.54,3.54,0,0,0-1.62-2.8,1.15,1.15,0,0,0-1.14-.12,1.13,1.13,0,0,0-.48,1.05,3.56,3.56,0,0,0,1.61,2.8,1,1,0,0,0,1.63-.93Z" style="fill:#ebebeb"></path><path d="M350.47,142.94a3.44,3.44,0,0,0-3.39-.36,3.34,3.34,0,0,0-1.46,3.13,10.62,10.62,0,0,0,4.82,8.35,3,3,0,0,0,4.86-2.77A10.6,10.6,0,0,0,350.47,142.94Zm3.06,10.81a1.73,1.73,0,0,1-.92.24,3.72,3.72,0,0,1-1.8-.57,9.82,9.82,0,0,1-4.45-7.71,2.66,2.66,0,0,1,1.07-2.48,1.81,1.81,0,0,1,.87-.21,3.67,3.67,0,0,1,1.8.56,9.81,9.81,0,0,1,4.46,7.71A2.71,2.71,0,0,1,353.53,153.75Z" style="fill:#455a64"></path><path d="M357.57,150a10.62,10.62,0,0,0-4.82-8.35,3.54,3.54,0,0,0-3.28-.43h0l-.22.12-2.15,1.22h0a3.44,3.44,0,0,1,3.39.36,10.6,10.6,0,0,1,4.83,8.35,3.42,3.42,0,0,1-1.4,3.1h0l2.16-1.23.14-.07,0,0h0A3.41,3.41,0,0,0,357.57,150Z" style="fill:#37474f"></path><path d="M353.33,142l-2.24,1.31a10.39,10.39,0,0,1,2.72,3.07l2.25-1.32A10.38,10.38,0,0,0,353.33,142Z" style="fill:#fff;opacity:0.2"></path><path d="M357.56,150.39l-2.28,1.33a3.19,3.19,0,0,1-1.38,2.67h0l2.16-1.23.14-.07,0,0h0A3.26,3.26,0,0,0,357.56,150.39Z" style="opacity:0.2"></path><path d="M369.53,150.34a2.79,2.79,0,0,1,1.05-1.25,7.31,7.31,0,0,0,3-3.67,20.58,20.58,0,0,0,.74-5,7.77,7.77,0,0,1,1.7-4.64c-2.87-1.15-4,1.45-5.07,5.62l-9.6,5.54.14.32a2.37,2.37,0,0,1,0,1.95l-2.8,5.67a9.77,9.77,0,0,0,9.43,1.06A51,51,0,0,1,369.53,150.34Z" style="fill:#ffa8a7"></path><path d="M367.6,161.83c.5-2,1.11-4.7,1.5-7.11a12.35,12.35,0,0,1-10.77-1.28,53.18,53.18,0,0,0-3.05,6A14,14,0,0,0,367.6,161.83Z" style="fill:#37474f"></path><path d="M366.71,165.23s.39-1.41.89-3.4a14,14,0,0,1-12.32-2.42,63.35,63.35,0,0,0-5,19.82,16.86,16.86,0,0,0,.3,6,7,7,0,0,0,3.59,4.6c2.55,1.16,5.59.16,7.9-1.42,4.34-3,7.06-7.72,9.64-12.31l7-24.93C374.56,151.58,371.17,153.9,366.71,165.23Z" style="fill:#455a64"></path><path d="M366.71,165.23c-1.64,5.79-4.2,15-4.2,15C368.34,174.35,366.71,165.23,366.71,165.23Z" style="opacity:0.1"></path><path d="M377.68,154.84a17.45,17.45,0,0,0-5.22,5.56c-2.28,3.91-2.95,8.52-3.57,13q-.66,4.71-1.31,9.42a70.58,70.58,0,0,0,4.15-6.75Z" style="opacity:0.1"></path><path d="M361.48,137.64c.13-.11.65.11,1.35.49a8.27,8.27,0,0,0,2.16,1,7,7,0,0,0,6-3.63,2.83,2.83,0,0,0-.67-2.62,3.29,3.29,0,0,0-2.55-1,7.13,7.13,0,0,0-3,1.12l-3,1.73a1.76,1.76,0,0,0-.3,2.86Z" style="fill:#ffa8a7"></path><path d="M386.16,150.36l-7.44.78c-6.11,5.38-9.25,16.66-7.94,29.12A221.8,221.8,0,0,1,371.7,206c16.53,12.07,37.38,3.28,40,.66l-1.23-15.28a10.48,10.48,0,0,1,.84-5c1.56-3.63,4.34-10.76,4.71-16.29a28.87,28.87,0,0,0-3-14.23l-10.82-4.72Z" style="fill:#455a64"></path><path d="M386.16,150.36l-7.44.78c-6.11,5.38-9.25,16.66-7.94,29.12A221.8,221.8,0,0,1,371.7,206c16.53,12.07,37.38,3.28,40,.66l-1.23-15.28a10.48,10.48,0,0,1,.84-5c1.56-3.63,4.34-10.76,4.71-16.29a28.87,28.87,0,0,0-3-14.23l-10.82-4.72Z" style="fill:#fff;opacity:0.05"></path><path d="M411.32,186.32a65,65,0,0,0,4.48-14.24c-1.54.92-3.16,1.83-3.8,3.36A27,27,0,0,0,410.47,191,10.6,10.6,0,0,1,411.32,186.32Z" style="opacity:0.1"></path><path d="M386.41,155.8h-2.58a22.48,22.48,0,0,0,.26,5.41A80.59,80.59,0,0,0,378,190.3l3.07,6.59,4.8-6.3a247.75,247.75,0,0,1,.58-29,18.92,18.92,0,0,0,3.72-4.5Z" style="fill:#92E3A9"></path><path d="M386.41,155.8c3.2,1.18,6.06,6.89,6.06,6.89,8.41-7.15,9.73-11.61,9.73-11.61-2.17-3.09-4.53-3.58-4.53-3.58Z" style="fill:#37474f"></path><path d="M386.41,155.8c-2.45.06-4.61,3.48-4.61,3.48-.4-6,4.61-10.56,4.61-10.56Z" style="fill:#37474f"></path><path d="M397.87,140.82l-11.46,4.09V155.8s12.11-5.44,12.11-8v-7.22Z" style="fill:#ffa8a7"></path><path d="M397.87,140.82l-11.46,4.09v4.25a18.77,18.77,0,0,0,7.26-2.64A11.15,11.15,0,0,0,397.87,140.82Z" style="fill:#f28f8f"></path><path d="M405.61,123.85a8.64,8.64,0,0,0-.69-4c-.64-1.21-2.25-2.21-3.53-1.75l3.72-2.07a3.28,3.28,0,0,0-2.5-.74,3,3,0,0,0-2.15,1.24,6,6,0,0,0-3.47-5.11,12.06,12.06,0,0,0-6.35-1c-2.16.17-4.29.63-6.46.78a20.87,20.87,0,0,1-3.26,0A13.08,13.08,0,0,0,375,124c.25,0,.51,0,.76,0a86.11,86.11,0,0,0,12.27,9.79,24.22,24.22,0,0,0,5.48,2.74,10.16,10.16,0,0,0,6,.19,7.82,7.82,0,0,0,3.72-2.52,10.5,10.5,0,0,0,2.06-5A31.49,31.49,0,0,0,405.61,123.85Z" style="fill:#263238"></path><path d="M375.52,120.41a41.57,41.57,0,0,0,2.39,22.23,7.89,7.89,0,0,0,3,4.19c1.59.91,3.57.72,5.39.45a27.4,27.4,0,0,0,8.51-2.4,11.6,11.6,0,0,0,5.9-6.35,5.11,5.11,0,0,0,5.16-2,9.66,9.66,0,0,0,1.67-5.64c0-1.28-.23-2.79-1.38-3.35s-2.34.07-3.26.81a9.8,9.8,0,0,0-3.19,4.78c-.84-3.11-2.15-6.11-3-9.21a5.24,5.24,0,0,0-1.81-3.24c-1.31-.84-3-.36-4.51,0A29.61,29.61,0,0,1,375.52,120.41Z" style="fill:#ffa8a7"></path><polygon points="384.58 129.84 380.94 135.96 385.28 136.78 384.58 129.84" style="fill:#f28f8f"></polygon><path d="M390.85,130.09a1.24,1.24,0,1,1-1.36-1.12A1.24,1.24,0,0,1,390.85,130.09Z" style="fill:#263238"></path><path d="M380.42,130.73a1.25,1.25,0,1,1-1.37-1.11A1.25,1.25,0,0,1,380.42,130.73Z" style="fill:#263238"></path><path d="M378.72,126.66l-2.56,2.17a1.76,1.76,0,0,1,.34-2A2.11,2.11,0,0,1,378.72,126.66Z" style="fill:#263238"></path><path d="M392.31,126.71l-2.93-1.62a1.77,1.77,0,0,0,.73,1.89A2.09,2.09,0,0,0,392.31,126.71Z" style="fill:#263238"></path><path d="M391.77,140.77a1.6,1.6,0,1,1-1.6-1.6A1.6,1.6,0,0,1,391.77,140.77Z" style="fill:#f28f8f"></path><path d="M391.77,140.77a1.6,1.6,0,1,1-1.6-1.6A1.6,1.6,0,0,1,391.77,140.77Z" style="opacity:0.2"></path><path d="M391.5,123.89c-19.66,6.14-26.16-2.73-18.62-5.28Z" style="fill:#263238"></path><path d="M411.94,113c-9.39-12.91-29.2-13.13-42.65-7.07,10.44,9.76,33,11.67,33,11.67l7.29-2.4Z" style="fill:#455a64"></path><path d="M411.94,113c-9.39-12.91-29.2-13.13-42.65-7.07,10.44,9.76,33,11.67,33,11.67l7.29-2.4Z" style="fill:#fff;opacity:0.05"></path><path d="M367.27,107.26c6.86-5.59,16.31-2.59,26.51,3.38S411.94,113,411.94,113c-1.1,3.73-5.49,6.18-5.49,6.18l-2.39,1.94-19.93.68-10.33-3.93-.72-2.09C369.16,112.69,367.27,107.26,367.27,107.26Z" style="fill:#455a64"></path><path d="M406.45,119.15l-.53,3.34c-8.83,2.42-28.65,2.11-33-3.88l.2-2.86C381.87,120.87,397.3,121.53,406.45,119.15Z" style="fill:#92E3A9"></path><path d="M381.66,111.63a6.11,6.11,0,0,1-4.67-3.72,3.12,3.12,0,0,1-4.12.7c.63,5.72,2.5,9.08,5.36,11.82A9.69,9.69,0,0,0,381.66,111.63Z" style="fill:#92E3A9"></path><path d="M381.66,111.63a6.11,6.11,0,0,1-4.67-3.72,3.12,3.12,0,0,1-4.12.7c.63,5.72,2.5,9.08,5.36,11.82A9.69,9.69,0,0,0,381.66,111.63Z" style="fill:#92E3A9;opacity:0.4"></path><g style="opacity:0.4"><path d="M381.66,111.63a6.11,6.11,0,0,1-4.67-3.72,3.12,3.12,0,0,1-4.12.7c.63,5.72,2.5,9.08,5.36,11.82A9.69,9.69,0,0,0,381.66,111.63Z"></path><path d="M381.66,111.63a6.11,6.11,0,0,1-4.67-3.72,3.12,3.12,0,0,1-4.12.7c.63,5.72,2.5,9.08,5.36,11.82A9.69,9.69,0,0,0,381.66,111.63Z" style="opacity:0.4"></path></g><path d="M418.29,217.88a76.09,76.09,0,0,1-6.9,13.36,11.44,11.44,0,0,1-2.91,3.35,9.22,9.22,0,0,1-6,1.29,4.08,4.08,0,0,1-2.64-.9,3,3,0,0,1-.7-2.78,7.69,7.69,0,0,1,1.31-2.68,31.82,31.82,0,0,1,4.66-5.56,20.77,20.77,0,0,1-3.58,1.16,3.47,3.47,0,0,1-1.57,0,1.84,1.84,0,0,1-1.27-1.07,74.24,74.24,0,0,1,10.35-6.77,21.53,21.53,0,0,0,1.47-3.5Z" style="fill:#ffa8a7"></path><path d="M409.4,215.46a8.32,8.32,0,0,0,8.59,3.61,51.64,51.64,0,0,0,3.61-5.14,17.79,17.79,0,0,1-10-4.23C410.8,211.81,410,213.79,409.4,215.46Z" style="fill:#37474f"></path><path d="M432.43,188.15,420.82,162c-2.19-4.94-7.55-8.15-12.95-8.49,0,0-2.36,2.36-2.36,7.41,0,6.75,3.06,11.57,13.51,30.07-1.65,3.55-4.8,11.8-7.42,18.67a17.79,17.79,0,0,0,10,4.23c3.56-5.59,8-13.49,10.51-18.11A8.66,8.66,0,0,0,432.43,188.15Z" style="fill:#455a64"></path><path d="M149.9,207.5c-15.15-8.75-29.22-11.52-40.89-9.13a36.26,36.26,0,0,0-10.17,3.7C85.4,209.49,77,225.76,77,249.07c-.13,46.14,32.31,102.34,72.47,125.52,20.35,11.75,38.77,12.75,52,4.88a36.94,36.94,0,0,0,11.5-11l.54-.78.34-.53c5.42-8.55,8.51-20.07,8.55-34.19C222.5,286.88,190.06,230.68,149.9,207.5Z" style="fill:#92E3A9;opacity:0.1"></path><path d="M354.56,151.29a9.81,9.81,0,0,0-4.46-7.71,3.67,3.67,0,0,0-1.8-.56,1.69,1.69,0,0,0-.56.09h0L109,198.36h0c11.67-2.39,25.74.38,40.89,9.13,40.16,23.18,72.6,79.38,72.47,125.52,0,14.12-3.13,25.64-8.55,34.19L354,153.33h0A3.26,3.26,0,0,0,354.56,151.29Z" style="fill:#92E3A9;opacity:0.2"></path><path d="M403.76,171.44a50.94,50.94,0,0,1-13.62-.49l-.13,2.51a50.54,50.54,0,0,0,13.62.49Z" style="fill:#e0e0e0"></path><path d="M379.71,169.63a6.93,6.93,0,0,1-4.89-4.7,3.56,3.56,0,0,1-4.74.35c.1,6.54,1.87,10.55,4.81,13.95A11,11,0,0,0,379.71,169.63Z" style="fill:#92E3A9"></path><path d="M379.71,169.63a6.93,6.93,0,0,1-4.89-4.7,3.56,3.56,0,0,1-4.74.35c.1,6.54,1.87,10.55,4.81,13.95A11,11,0,0,0,379.71,169.63Z" style="opacity:0.4"></path></g></svg>